<?xml version="1.0" encoding="UTF-8"?>
<!-- Generated by jsxcad -->
<!DOCTYPE svg PUBLIC "-//W3C//DTD SVG 1.1 Tiny//EN" "http://www.w3.org/Graphics/SVG/1.1/DTD/svg11-tiny.dtd">
<svg baseProfile="tiny" height="22.000000000000014mm" width="22.000000000000014mm" viewBox="-11.000000000000007 -11.000000000000007 11.000000000000007 11.000000000000007" version="1.1" stroke="black" stroke-width=".1" fill="none" xmlns="http://www.w3.org/2000/svg">
<path fill="#000000" stroke="#000000" d="M2.8906639111535037 12.880150834819842 L2.2909276433840433 11.911543504695686 L2.2909276433840433 11.911543504695686 L2.8906639111535037 12.880150834819842 z"/>
<path fill="#000000" stroke="#000000" d="M2.2909276433840433 11.911543504695686 L1.526827329854769 11.334521732659072 L1.4539909150897452 11.279518225433186 L1.3817889029072667 11.22499379679932 L1.3817889029072667 11.22499379679932 L2.2909276433840433 11.911543504695686 z"/>
<path fill="#000000" stroke="#000000" d="M3.0999999999999996 14.000000000000012 L3.0544976326150954 13.756583834108655 L2.8906639111535037 12.88015083481984 L2.8906639111535037 12.88015083481984 L3.0999999999999996 14.000000000000012 z"/>
<path fill="#000000" stroke="#000000" d="M1.3817889029072667 11.22499379679932 L0.9039198818738183 11.089028337688207 L0.9039198818738183 11.089028337688207 L0.9039198818738183 11.089028337688207 L1.3817889029072667 11.22499379679932 z"/>
<path fill="#000000" stroke="#000000" d="M-1.8681673727756958 11.526146595431271 L-1.011617974988028 11.099635674017916 L-1.011617974988028 11.099635674017916 L-1.011617974988028 11.099635674017916 L-1.011617974988028 11.099635674017916 L-1.351343665494856 11.2687989676471 L-1.8681673727756958 11.526146595431271 z"/>
<path fill="#000000" stroke="#000000" d="M-1.8681673727756953 11.526146595431271 L-1.9488676083043848 11.614670536828163 L-2.406767056861824 12.116962304432203 L-2.6356731207618043 12.368060295080213 L-2.6356731207618043 12.368060295080213 L-1.8681673727756953 11.526146595431271 z"/>
<path fill="#000000" stroke="#000000" d="M-2.6356731207618047 12.36806029508021 L-2.9446864980469507 13.16571577008172 L-3.0472166090200954 13.430376494768645 L-3.0472166090200954 13.430376494768645 L-2.6356731207618047 12.36806029508021 z"/>
<path fill="#000000" stroke="#000000" d="M-3.047216609020096 13.430376494768646 L-3.0472166090200954 13.463312888304785 L-3.0472166090200954 13.783305476764562 L-3.0472166090200954 14.233837638321775 L-3.0472166090200954 14.452358311343831 L-3.0472166090200954 14.569623505231382 L-3.0472166090200954 14.569623505231382 L-3.047216609020096 13.430376494768646 z"/>
<path fill="#000000" stroke="#000000" d="M-3.0472166090200954 14.569623505231382 L-2.944726836572168 14.834180104181822 L-2.737448358178532 15.3692275334978 L-2.635673120761803 15.631939704919818 L-2.635673120761803 15.631939704919818 L-3.0472166090200954 14.569623505231382 z"/>
<path fill="#000000" stroke="#000000" d="M-0.8483552692234562 16.981659493835753 L-0.53590671301208 17.010612116317354 L0.28603191433623665 17.08677594651462 L0.28603191433623665 17.08677594651462 L-0.8483552692234562 16.981659493835753 z"/>
<path fill="#000000" stroke="#000000" d="M-2.635673120761803 15.631939704919818 L-2.3669302655601285 15.926736573960538 L-1.868167372775695 16.473853404568754 L-1.868167372775695 16.473853404568754 L-2.635673120761803 15.631939704919818 z"/>
<path fill="#000000" stroke="#000000" d="M-1.8681673727756944 16.473853404568757 L-1.441218202742528 16.68644883032919 L-0.8483552692234562 16.981659493835753 L-0.8483552692234562 16.981659493835753 L-1.8681673727756944 16.473853404568757 z"/>
<path fill="#000000" stroke="#000000" d="M2.8906639111535033 15.119849165180186 L2.9763489715094935 14.66147457799455 L3.1 14.000000000000014 L3.1 14.000000000000014 L2.8906639111535033 15.119849165180186 z"/>
<path fill="#000000" stroke="#000000" d="M0.28603191433623665 17.08677594651462 L0.5410996316649057 17.014202923856622 L1.381788902907269 16.775006203200707 L1.381788902907269 16.775006203200707 L0.28603191433623665 17.08677594651462 z"/>
<path fill="#000000" stroke="#000000" d="M1.381788902907269 16.775006203200707 L1.391208023422126 16.767893213565344 L1.8350370301560261 16.432729105643496 L2.2909276433840433 16.08845649530434 L2.2909276433840433 16.08845649530434 L1.381788902907269 16.775006203200707 z"/>
<path fill="#000000" stroke="#000000" d="M2.2909276433840438 16.08845649530434 L2.648434888381961 15.511062469484667 L2.8906639111535033 15.119849165180186 L2.8906639111535033 15.119849165180186 L2.2909276433840438 16.08845649530434 z"/>
<path fill="#000000" stroke="#000000" d="M-2.8906639111535077 31.119849165180177 L-2.8724178054856564 31.149317637650306 L-2.4696532711306727 31.79980469547193 L-2.359774357033115 31.97726523494674 L-2.3373076920256635 32.013550144796525 L-2.2909276433840473 32.088456495304335 L-2.2909276433840473 32.088456495304335 L-2.8906639111535077 31.119849165180177 z"/>
<path fill="#000000" stroke="#000000" d="M-2.2909276433840433 32.088456495304335 L-2.2842679572420717 32.093485656830396 L-1.8826206860313641 32.39679559672194 L-1.8551877815856632 32.417511964527435 L-1.8195848311148584 32.44439806469864 L-1.7836200843749186 32.4715573807299 L-1.6879464056426534 32.54380678916734 L-1.6408256840688922 32.57939070633203 L-1.5879151801948315 32.61934686413511 L-1.4539909150897474 32.720481774566835 L-1.3817889029072667 32.775006203200704 L-1.3817889029072667 32.775006203200704 L-2.2909276433840433 32.088456495304335 z"/>
<path fill="#000000" stroke="#000000" d="M-3.1000000000000005 30.00000000000001 L-2.894449275236198 31.099599255901442 L-2.8906639111535046 31.11984916518018 L-2.8906639111535046 31.11984916518018 L-3.1000000000000005 30.00000000000001 z"/>
<path fill="#000000" stroke="#000000" d="M-1.3817889029072667 32.775006203200704 L-1.3817889029072667 32.775006203200704 L-1.333877810022908 32.78863808443555 L-0.9039198818738219 32.910971662311816 L-0.9039198818738219 32.910971662311816 L-0.9039198818738219 32.910971662311816 z"/>
<path fill="#000000" stroke="#000000" d="M1.0116179749880296 32.90036432598211 L1.0116179749880296 32.90036432598211 L1.0116179749880296 32.90036432598211 L1.235994515210407 32.78863808443555 L1.8681673727756958 32.47385340456875 L1.8681673727756958 32.47385340456875 L1.0116179749880296 32.90036432598211 z"/>
<path fill="#000000" stroke="#000000" d="M1.8681673727756978 32.47385340456875 L1.9488676083043897 32.38532946317186 L2.635673120761807 31.631939704919812 L2.635673120761807 31.631939704919812 L1.8681673727756978 32.47385340456875 z"/>
<path fill="#000000" stroke="#000000" d="M2.6356731207618065 31.63193970491981 L2.7646505928378877 31.299010471702807 L3.0158765674801082 30.650521477807104 L3.047216609020097 30.569623505231377 L3.047216609020097 30.569623505231377 L2.6356731207618065 31.63193970491981 z"/>
<path fill="#000000" stroke="#000000" d="M3.0472166090200954 30.569623505231377 L3.0472166090200954 30.01280942728778 L3.047216609020095 29.43037649476864 L3.047216609020095 29.43037649476864 L3.0472166090200954 30.569623505231377 z"/>
<path fill="#000000" stroke="#000000" d="M3.0472166090200936 29.430376494768637 L2.704118293771089 28.544737652765935 L2.635673120761801 28.368060295080205 L2.635673120761801 28.368060295080205 L3.0472166090200936 29.430376494768637 z"/>
<path fill="#000000" stroke="#000000" d="M0.8483552692234562 27.01834050616427 L-0.28603191433623665 26.913224053485404 L-0.28603191433623665 26.913224053485404 L0.8483552692234562 27.01834050616427 z"/>
<path fill="#000000" stroke="#000000" d="M2.6356731207617985 28.368060295080205 L2.3464407979453505 28.050787550739976 L1.9270014741853763 27.590684530310998 L1.8681673727756904 27.526146595431264 L1.8681673727756904 27.526146595431264 L2.6356731207617985 28.368060295080205 z"/>
<path fill="#000000" stroke="#000000" d="M1.8681673727756944 27.526146595431268 L1.5107559407755258 27.348176848934703 L0.8483552692234562 27.01834050616427 L0.8483552692234562 27.01834050616427 L1.8681673727756944 27.526146595431268 z"/>
<path fill="#000000" stroke="#000000" d="M-2.890663911153503 28.880150834819837 L-2.9065431254754976 28.965097128601233 L-2.985499170866622 29.387474665147334 L-3.009003739641742 29.51321300231498 L-3.085007465443207 29.919797024011142 L-3.0999999999999996 30.00000000000001 L-3.0999999999999996 30.00000000000001 L-2.890663911153503 28.880150834819837 z"/>
<path fill="#000000" stroke="#000000" d="M-0.28603191433623665 26.913224053485404 L-1.381788902907269 27.224993796799318 L-1.381788902907269 27.224993796799318 L-0.28603191433623665 26.913224053485404 z"/>
<path fill="#000000" stroke="#000000" d="M-1.381788902907269 27.224993796799318 L-2.2909276433840433 27.911543504695686 L-2.2909276433840433 27.911543504695686 L-1.381788902907269 27.224993796799318 z"/>
<path fill="#000000" stroke="#000000" d="M-2.2909276433840415 27.911543504695683 L-2.890663911153501 28.880150834819837 L-2.890663911153501 28.880150834819837 L-2.2909276433840415 27.911543504695683 z"/>
<path fill="#000000" stroke="#000000" d="M10.088456495304325 24.290927643384055 L10.088456495304325 24.290927643384055 L9.11984916518017 24.890663911153517 L9.11984916518017 24.890663911153517 z"/>
<path fill="#000000" stroke="#000000" d="M10.088456495304328 24.290927643384055 L10.162674857624154 24.192646648339363 L10.720481774566828 23.453990915089754 L10.775006203200695 23.381788902907278 L10.775006203200695 23.381788902907278 L10.088456495304328 24.290927643384055 z"/>
<path fill="#000000" stroke="#000000" d="M7.999999999999998 25.100000000000012 L8.660317828007669 24.976565205557407 L9.119849165180169 24.890663911153517 L9.119849165180169 24.890663911153517 L7.999999999999998 25.100000000000012 z"/>
<path fill="#000000" stroke="#000000" d="M10.775006203200693 23.381788902907278 L10.775006203200693 23.381788902907278 L10.788638084435535 23.333877810022912 L10.910971662311805 22.90391988187383 L10.910971662311805 22.90391988187383 L10.910971662311805 22.90391988187383 z"/>
<path fill="#000000" stroke="#000000" d="M10.900364325982094 20.98838202501198 L10.900364325982094 20.98838202501198 L10.900364325982094 20.98838202501198 L10.788638084435533 20.764005484789603 L10.47385340456874 20.131832627224316 L10.47385340456874 20.131832627224316 L10.900364325982094 20.98838202501198 z"/>
<path fill="#000000" stroke="#000000" d="M10.47385340456874 20.131832627224316 L10.38532946317185 20.051132391695628 L10.162674857624152 19.848155899396364 L9.631939704919798 19.364326879238206 L9.631939704919798 19.364326879238206 L10.47385340456874 20.131832627224316 z"/>
<path fill="#000000" stroke="#000000" d="M8.569623505231366 18.952783390979917 L8.569623505231366 18.952783390979917 L9.6319397049198 19.364326879238206 L9.6319397049198 19.364326879238206 z"/>
<path fill="#000000" stroke="#000000" d="M7.4303764947686295 18.952783390979917 L7.4303764947686295 18.952783390979917 L8.569623505231366 18.952783390979917 L8.569623505231366 18.952783390979917 z"/>
<path fill="#000000" stroke="#000000" d="M6.368060295080195 19.36432687923821 L6.368060295080195 19.36432687923821 L7.4303764947686295 18.952783390979917 L7.4303764947686295 18.952783390979917 z"/>
<path fill="#000000" stroke="#000000" d="M5.01834050616426 21.151644730776557 L4.946346162722072 21.928587430118917 L4.913224053485393 22.28603191433625 L4.913224053485393 22.28603191433625 L5.01834050616426 21.151644730776557 z"/>
<path fill="#000000" stroke="#000000" d="M5.526146595431256 20.13183262722432 L5.526146595431256 20.13183262722432 L6.368060295080195 19.36432687923821 L6.368060295080195 19.36432687923821 z"/>
<path fill="#000000" stroke="#000000" d="M5.018340506164262 21.151644730776553 L5.018340506164262 21.151644730776553 L5.526146595431258 20.131832627224316 L5.526146595431258 20.131832627224316 z"/>
<path fill="#000000" stroke="#000000" d="M7.999999999999999 25.100000000000012 L7.999999999999999 25.100000000000012 L6.880150834819825 24.890663911153517 L6.880150834819825 24.890663911153517 z"/>
<path fill="#000000" stroke="#000000" d="M5.224993796799306 23.38178890290728 L5.224993796799306 23.38178890290728 L4.913224053485393 22.28603191433625 L4.913224053485393 22.28603191433625 z"/>
<path fill="#000000" stroke="#000000" d="M5.91154350469567 24.29092764338405 L5.91154350469567 24.29092764338405 L5.224993796799304 23.381788902907278 L5.224993796799304 23.381788902907278 z"/>
<path fill="#000000" stroke="#000000" d="M6.880150834819825 24.890663911153517 L6.880150834819825 24.890663911153517 L5.911543504695672 24.290927643384055 L5.911543504695672 24.290927643384055 z"/>
<path fill="#000000" stroke="#000000" d="M-5.911543504695672 24.290927643384055 L-5.911543504695672 24.290927643384055 L-6.880150834819827 24.890663911153517 L-6.880150834819827 24.890663911153517 z"/>
<path fill="#000000" stroke="#000000" d="M-5.224993796799304 23.381788902907278 L-5.224993796799304 23.381788902907278 L-5.911543504695671 24.290927643384055 L-5.911543504695671 24.290927643384055 z"/>
<path fill="#000000" stroke="#000000" d="M-8 25.100000000000012 L-7.362947784226612 24.980914302222544 L-6.880150834819828 24.890663911153517 L-6.880150834819828 24.890663911153517 L-8 25.100000000000012 z"/>
<path fill="#000000" stroke="#000000" d="M-4.913224053485392 22.286031914336245 L-4.913224053485392 22.286031914336245 L-5.224993796799305 23.381788902907278 L-5.224993796799305 23.381788902907278 z"/>
<path fill="#000000" stroke="#000000" d="M-5.018340506164261 21.151644730776553 L-5.018340506164261 21.151644730776553 L-4.913224053485393 22.286031914336245 L-4.913224053485393 22.286031914336245 z"/>
<path fill="#000000" stroke="#000000" d="M-5.526146595431259 20.131832627224316 L-5.526146595431259 20.131832627224316 L-5.018340506164262 21.151644730776553 L-5.018340506164262 21.151644730776553 z"/>
<path fill="#000000" stroke="#000000" d="M-6.368060295080198 19.364326879238206 L-6.368060295080198 19.364326879238206 L-5.526146595431258 20.131832627224316 L-5.526146595431258 20.131832627224316 z"/>
<path fill="#000000" stroke="#000000" d="M-7.430376494768631 18.952783390979917 L-7.430376494768631 18.952783390979917 L-6.368060295080197 19.364326879238206 L-6.368060295080197 19.364326879238206 z"/>
<path fill="#000000" stroke="#000000" d="M-8.569623505231368 18.952783390979917 L-8.569623505231368 18.952783390979917 L-7.430376494768632 18.952783390979917 L-7.430376494768632 18.952783390979917 z"/>
<path fill="#000000" stroke="#000000" d="M-9.631939704919802 19.36432687923821 L-9.631939704919802 19.36432687923821 L-8.569623505231368 18.952783390979917 L-8.569623505231368 18.952783390979917 z"/>
<path fill="#000000" stroke="#000000" d="M-10.473853404568741 20.131832627224316 L-10.473853404568741 20.131832627224316 L-9.631939704919803 19.36432687923821 L-9.631939704919803 19.36432687923821 z"/>
<path fill="#000000" stroke="#000000" d="M-10.900364325982094 20.98838202501198 L-10.900364325982094 20.98838202501198 L-10.473853404568741 20.131832627224316 L-10.473853404568741 20.131832627224316 L-10.52900011148169 20.24258214435211 L-10.659296208072853 20.50425198084636 L-10.900364325982094 20.98838202501198 L-10.900364325982094 20.98838202501198 z"/>
<path fill="#000000" stroke="#000000" d="M-7.999999999999999 25.100000000000012 L-7.999999999999999 25.100000000000012 L-9.119849165180172 24.890663911153517 L-9.119849165180172 24.890663911153517 z"/>
<path fill="#000000" stroke="#000000" d="M-10.775006203200693 23.38178890290728 L-10.910971662311805 22.903919881873826 L-10.910971662311805 22.903919881873826 L-10.910971662311805 22.903919881873826 L-10.910971662311805 22.903919881873826 L-10.775006203200693 23.38178890290728 z"/>
<path fill="#000000" stroke="#000000" d="M-10.775006203200695 23.381788902907278 L-10.707315085560097 23.471426429113215 L-10.45047676516075 23.811535330811672 L-10.088456495304328 24.29092764338405 L-10.088456495304328 24.29092764338405 L-10.775006203200695 23.381788902907278 z"/>
<path fill="#000000" stroke="#000000" d="M-10.088456495304326 24.290927643384055 L-9.880462809950162 24.419711881015143 L-9.119849165180172 24.890663911153517 L-9.119849165180172 24.890663911153517 L-10.088456495304326 24.290927643384055 z"/>
<path fill="#000000" stroke="#000000" d="M-10.90488713799599 21.034302906020176 L-10.906662975936742 21.052333291213422 L-11 22.00000000000001 L-10.990810108753779 22.093306531666478 L-10.969672292562388 22.307922381079642 L-10.960489458526999 22.401157259682076 L-10.910971662311805 22.90391988187383 L-10.775006203200693 23.38178890290728 L-10.088456495304326 24.290927643384055 L-9.119849165180174 24.890663911153517 L-8 25.100000000000012 L-6.880150834819828 24.890663911153517 L-5.911543504695673 24.290927643384055 L-5.224993796799306 23.381788902907278 L-4.913224053485393 22.28603191433625 L-5.018340506164261 21.151644730776553 L-5.526146595431259 20.131832627224316 L-6.368060295080198 19.364326879238206 L-7.430376494768633 18.952783390979917 L-8.569623505231368 18.952783390979917 L-9.631939704919803 19.36432687923821 L-10.473853404568743 20.131832627224316 L-10.900364325982096 20.988382025011983 z"/>
<path fill="#000000" stroke="#000000" d="M10.775006203200693 23.381788902907278 L10.910971662311804 22.903919881873833 L11 22.000000000000014 L10.950046006472581 21.492808592174633 L10.900364325982094 20.988382025011983 L10.473853404568741 20.131832627224316 L9.6319397049198 19.364326879238206 L8.569623505231366 18.952783390979917 L7.43037649476863 18.952783390979917 L6.368060295080196 19.36432687923821 L5.526146595431257 20.131832627224316 L5.01834050616426 21.151644730776557 L4.913224053485393 22.28603191433625 L5.224993796799307 23.38178890290728 L5.911543504695673 24.290927643384055 L6.880150834819826 24.890663911153517 L7.999999999999999 25.100000000000012 L9.11984916518017 24.890663911153517 L10.088456495304326 24.290927643384055 z"/>
<path fill="#000000" stroke="#000000" d="M-1.381788902907267 32.775006203200704 L-0.903919881873822 32.910971662311816 L6.735557395310443e-16 33.000000000000014 L0.507191407825381 32.95004600647259 L1.0116179749880296 32.90036432598211 L1.868167372775696 32.47385340456875 L2.635673120761805 31.631939704919812 L3.047216609020096 30.56962350523138 L3.0472166090200954 29.430376494768645 L2.635673120761803 28.36806029508021 L1.8681673727756947 27.52614659543127 L0.8483552692234563 27.01834050616427 L-0.2860319143362367 26.913224053485404 L-1.3817889029072692 27.22499379679932 L-2.2909276433840438 27.911543504695686 L-2.8906639111535033 28.88015083481984 L-3.1 30.00000000000001 L-2.890663911153504 31.119849165180185 L-2.2909276433840438 32.088456495304335 z"/>
<path fill="#000000" stroke="#000000" d="M1.381788902907267 11.22499379679932 L0.9039198818738183 11.089028337688207 L6.735557395310443e-16 11.000000000000014 L-0.5071914078253822 11.049953993527431 L-1.011617974988028 11.099635674017916 L-1.868167372775696 11.526146595431273 L-2.635673120761805 12.368060295080213 L-3.047216609020096 13.430376494768646 L-3.0472166090200954 14.569623505231382 L-2.635673120761803 15.631939704919818 L-1.8681673727756947 16.473853404568757 L-0.8483552692234563 16.981659493835753 L0.2860319143362367 17.08677594651462 L1.3817889029072692 16.775006203200707 L2.2909276433840438 16.08845649530434 L2.8906639111535033 15.119849165180188 L3.1 14.000000000000014 L2.890663911153504 12.880150834819842 L2.2909276433840438 11.911543504695686 z"/>
<path fill="#000000" stroke="#000000" d="M-4.209517756015984 32.16267485762417 L-2.145993542177415 32.78863808443555 L-2.145993542177415 32.78863808443555 L-4.209517756015984 32.16267485762417 z"/>
<path fill="#000000" stroke="#000000" d="M-6.111272563215632 31.146165735328005 L-4.209517756015984 32.16267485762417 L-4.209517756015984 32.16267485762417 L-6.111272563215632 31.146165735328005 z"/>
<path fill="#000000" stroke="#000000" d="M-7.7781745930520225 29.778174593052036 L-6.111272563215632 31.146165735328005 L-6.111272563215632 31.146165735328005 L-7.7781745930520225 29.778174593052036 z"/>
<path fill="#000000" stroke="#000000" d="M-9.146165735328001 28.111272563215632 L-7.778174593052028 29.77817459305203 L-7.778174593052028 29.77817459305203 L-9.146165735328001 28.111272563215632 z"/>
<path fill="#000000" stroke="#000000" d="M-10.162674857624157 26.20951775601599 L-9.146165735327997 28.111272563215636 L-9.146165735327997 28.111272563215636 L-10.162674857624157 26.20951775601599 z"/>
<path fill="#000000" stroke="#000000" d="M-10.788638084435537 24.14599354217742 L-10.162674857624157 26.209517756015995 L-10.162674857624157 26.209517756015995 L-10.788638084435537 24.14599354217742 z"/>
<path fill="#000000" stroke="#000000" d="M-10.910971662311805 22.903919881873826 L-10.910971662311805 22.903919881873826 L-10.960489458526999 22.401157259682076 L-10.969672292562388 22.30792238107964 L-10.990810108753779 22.093306531666475 L-11 22.000000000000007 L-11 22.000000000000007 L-10.788638084435537 24.145993542177415 L-10.788638084435537 24.145993542177415 L-10.910971662311805 22.903919881873826 L-10.910971662311805 22.903919881873826 z"/>
<path fill="#000000" stroke="#000000" d="M-10.900364325982096 20.988382025011983 L-10.900364325982096 20.988382025011983 L-10.900364325982096 20.988382025011983 L-10.900364325982096 20.988382025011983 L-10.788638084435533 19.8540064578226 L-10.788638084435533 19.8540064578226 L-10.999999999999998 22.000000000000007 L-10.999999999999998 22.000000000000007 L-10.906662975936742 21.052333291213422 L-10.90488713799599 21.034302906020176 z"/>
<path fill="#000000" stroke="#000000" d="M-10.162674857624152 17.790482243984023 L-10.788638084435533 19.854006457822603 L-10.788638084435533 19.854006457822603 L-10.162674857624152 17.790482243984023 z"/>
<path fill="#000000" stroke="#000000" d="M-9.146165735327997 15.88872743678439 L-10.162674857624152 17.790482243984023 L-10.162674857624152 17.790482243984023 L-9.146165735327997 15.88872743678439 z"/>
<path fill="#000000" stroke="#000000" d="M-7.778174593052021 14.221825406947989 L-9.146165735327997 15.88872743678439 L-9.146165735327997 15.88872743678439 L-7.778174593052021 14.221825406947989 z"/>
<path fill="#000000" stroke="#000000" d="M-6.111272563215624 12.853834264672017 L-7.778174593052021 14.221825406947989 L-7.778174593052021 14.221825406947989 L-6.111272563215624 12.853834264672017 z"/>
<path fill="#000000" stroke="#000000" d="M9.146165735327994 15.888727436784388 L7.778174593052021 14.221825406947989 L7.778174593052021 14.221825406947989 L9.146165735327994 15.888727436784388 z"/>
<path fill="#000000" stroke="#000000" d="M-2.1459935421774072 11.211361915564476 L-4.209517756015986 11.837325142375859 L-4.209517756015986 11.837325142375859 L-2.1459935421774072 11.211361915564476 z"/>
<path fill="#000000" stroke="#000000" d="M-1.011617974988028 11.099635674017916 L-1.011617974988028 11.099635674017916 L-0.5071914078253822 11.049953993527431 L6.735557395310442e-16 11.000000000000014 L6.735557395310442e-16 11.000000000000014 L-2.1459935421774072 11.211361915564476 L-2.1459935421774072 11.211361915564476 L-1.011617974988028 11.099635674017916 L-1.011617974988028 11.099635674017916 z"/>
<path fill="#000000" stroke="#000000" d="M-4.209517756015986 11.837325142375859 L-6.111272563215624 12.853834264672017 L-6.111272563215624 12.853834264672017 L-4.209517756015986 11.837325142375859 z"/>
<path fill="#000000" stroke="#000000" d="M0.9039198818738183 11.089028337688207 L2.1459935421774112 11.211361915564478 L2.1459935421774112 11.211361915564478 L6.735557395310442e-16 11.000000000000012 L6.735557395310442e-16 11.000000000000012 L0.9039198818738183 11.089028337688207 L0.9039198818738183 11.089028337688207 z"/>
<path fill="#000000" stroke="#000000" d="M4.2095177560159875 11.837325142375859 L2.1459935421774112 11.211361915564478 L2.1459935421774112 11.211361915564478 L4.2095177560159875 11.837325142375859 z"/>
<path fill="#000000" stroke="#000000" d="M6.111272563215624 12.853834264672015 L4.2095177560159875 11.837325142375859 L4.2095177560159875 11.837325142375859 L6.111272563215624 12.853834264672015 z"/>
<path fill="#000000" stroke="#000000" d="M7.778174593052022 14.22182540694799 L6.111272563215624 12.853834264672015 L6.111272563215624 12.853834264672015 L7.778174593052022 14.22182540694799 z"/>
<path fill="#000000" stroke="#000000" d="M10.162674857624152 17.790482243984023 L9.146165735327996 15.88872743678439 L9.146165735327996 15.88872743678439 L10.162674857624152 17.790482243984023 z"/>
<path fill="#000000" stroke="#000000" d="M10.162674857624154 26.209517756015998 L10.788638084435535 24.145993542177422 L10.788638084435535 24.145993542177422 L10.162674857624154 26.209517756015998 z"/>
<path fill="#000000" stroke="#000000" d="M10.900364325982094 20.98838202501198 L10.900364325982094 20.98838202501198 L10.950046006472581 21.492808592174633 L10.999999999999998 22.00000000000001 L10.999999999999998 22.00000000000001 L10.788638084435533 19.8540064578226 L10.788638084435533 19.8540064578226 L10.900364325982094 20.98838202501198 L10.900364325982094 20.98838202501198 z"/>
<path fill="#000000" stroke="#000000" d="M10.910971662311805 22.90391988187383 L10.910971662311805 22.90391988187383 L10.910971662311805 22.90391988187383 L10.788638084435535 24.145993542177422 L10.788638084435535 24.145993542177422 L11 22.00000000000001 L11 22.00000000000001 z"/>
<path fill="#000000" stroke="#000000" d="M10.788638084435533 19.8540064578226 L10.162674857624152 17.790482243984023 L10.162674857624152 17.790482243984023 L10.788638084435533 19.8540064578226 z"/>
<path fill="#000000" stroke="#000000" d="M9.146165735327997 28.111272563215636 L10.162674857624154 26.209517756015998 L10.162674857624154 26.209517756015998 L9.146165735327997 28.111272563215636 z"/>
<path fill="#000000" stroke="#000000" d="M7.778174593052023 29.778174593052032 L9.146165735327997 28.111272563215636 L9.146165735327997 28.111272563215636 L7.778174593052023 29.778174593052032 z"/>
<path fill="#000000" stroke="#000000" d="M2.1459935421774112 32.78863808443555 L4.2095177560159875 32.16267485762417 L4.2095177560159875 32.16267485762417 L2.1459935421774112 32.78863808443555 z"/>
<path fill="#000000" stroke="#000000" d="M6.111272563215624 31.14616573532801 L7.778174593052022 29.778174593052036 L7.778174593052022 29.778174593052036 L6.111272563215624 31.14616573532801 z"/>
<path fill="#000000" stroke="#000000" d="M4.2095177560159875 32.16267485762417 L6.111272563215624 31.14616573532801 L6.111272563215624 31.14616573532801 L4.2095177560159875 32.16267485762417 z"/>
<path fill="#000000" stroke="#000000" d="M1.0116179749880296 32.90036432598211 L0.507191407825381 32.95004600647259 L6.735557395310442e-16 33.000000000000014 L6.735557395310442e-16 33.000000000000014 L2.1459935421774112 32.78863808443555 L2.1459935421774112 32.78863808443555 L1.0116179749880296 32.90036432598211 L1.0116179749880296 32.90036432598211 L1.0116179749880296 32.90036432598211 z"/>
<path fill="#000000" stroke="#000000" d="M-0.903919881873822 32.910971662311816 L-2.145993542177415 32.78863808443555 L-2.145993542177415 32.78863808443555 L6.735557395310442e-16 33.00000000000001 L6.735557395310442e-16 33.00000000000001 L-0.903919881873822 32.910971662311816 L-0.903919881873822 32.910971662311816 z"/>
<path fill="#000000" stroke="#000000" d="M4.913224053485393 22.28603191433625 L4.946346162722072 21.928587430118917 L5.01834050616426 21.151644730776557 L5.526146595431257 20.131832627224316 L6.368060295080196 19.36432687923821 L7.43037649476863 18.952783390979917 L8.569623505231366 18.952783390979917 L9.6319397049198 19.364326879238206 L10.162674857624154 19.848155899396364 L10.38532946317185 20.051132391695628 L10.473853404568741 20.131832627224316 L10.788638084435535 20.764005484789607 L10.900364325982094 20.988382025011983 L10.788638084435535 19.854006457822603 L10.162674857624154 17.790482243984027 L9.146165735327997 15.88872743678439 L7.778174593052023 14.221825406947993 L6.111272563215625 12.853834264672017 L4.209517756015988 11.83732514237586 L2.1459935421774117 11.21136191556448 L0.9039198818738183 11.089028337688207 L1.381788902907267 11.22499379679932 L1.4539909150897454 11.279518225433188 L1.5268273298547692 11.334521732659072 L2.2909276433840438 11.911543504695686 L2.890663911153504 12.880150834819842 L3.0544976326150954 13.756583834108655 L3.1 14.000000000000014 L2.9763489715094935 14.661474577994552 L2.8906639111535033 15.119849165180188 L2.6484348883819595 15.511062469484669 L2.2909276433840438 16.08845649530434 L1.8350370301560264 16.432729105643496 L1.3912080234221262 16.767893213565344 L1.3817889029072692 16.775006203200707 L0.5410996316649057 17.014202923856622 L0.2860319143362367 17.08677594651462 L-0.53590671301208 17.010612116317354 L-0.8483552692234563 16.981659493835753 L-1.4412182027425284 16.68644883032919 L-1.8681673727756947 16.473853404568757 L-2.366930265560128 15.926736573960538 L-2.635673120761803 15.631939704919818 L-2.7374483581785314 15.3692275334978 L-2.9447268365721677 14.834180104181824 L-3.0472166090200954 14.569623505231382 L-3.0472166090200954 14.452358311343831 L-3.0472166090200954 14.233837638321775 L-3.0472166090200954 13.783305476764562 L-3.0472166090200954 13.463312888304786 L-3.047216609020096 13.430376494768646 L-2.944686498046951 13.165715770081722 L-2.635673120761805 12.368060295080213 L-2.4067670568618253 12.116962304432205 L-1.9488676083043848 11.614670536828163 L-1.868167372775696 11.526146595431273 L-1.3513436654948563 11.2687989676471 L-1.011617974988028 11.099635674017916 L-2.1459935421774077 11.211361915564478 L-4.209517756015987 11.83732514237586 L-6.111272563215625 12.853834264672019 L-7.778174593052022 14.22182540694799 L-9.146165735328 15.88872743678439 L-10.162674857624154 17.790482243984023 L-10.788638084435535 19.854006457822603 L-10.900364325982096 20.988382025011983 L-10.659296208072854 20.504251980846362 L-10.529000111481691 20.24258214435211 L-10.473853404568743 20.131832627224316 L-9.631939704919803 19.36432687923821 L-8.569623505231368 18.952783390979917 L-7.430376494768633 18.952783390979917 L-6.368060295080198 19.364326879238206 L-5.526146595431259 20.131832627224316 L-5.018340506164261 21.151644730776553 L-4.913224053485393 22.28603191433625 L-5.224993796799306 23.381788902907278 L-5.911543504695673 24.290927643384055 L-6.880150834819828 24.890663911153517 L-7.362947784226613 24.980914302222544 L-8 25.100000000000012 L-9.119849165180174 24.890663911153517 L-9.880462809950162 24.419711881015143 L-10.088456495304326 24.290927643384055 L-10.45047676516075 23.811535330811672 L-10.707315085560095 23.471426429113215 L-10.775006203200693 23.38178890290728 L-10.910971662311805 22.90391988187383 L-10.788638084435537 24.14599354217742 L-10.162674857624157 26.209517756015995 L-9.146165735327997 28.11127256321564 L-7.778174593052024 29.778174593052036 L-6.111272563215633 31.146165735328005 L-4.209517756015985 32.16267485762417 L-2.1459935421774152 32.78863808443555 L-0.903919881873822 32.910971662311816 L-1.3338778100229083 32.78863808443555 L-1.381788902907267 32.775006203200704 L-1.4539909150897476 32.720481774566835 L-1.5879151801948315 32.61934686413511 L-1.6408256840688924 32.57939070633203 L-1.6879464056426536 32.54380678916734 L-1.7836200843749186 32.4715573807299 L-1.8195848311148588 32.44439806469864 L-1.8551877815856632 32.417511964527435 L-1.8826206860313643 32.39679559672194 L-2.2842679572420717 32.093485656830396 L-2.2909276433840438 32.088456495304335 L-2.3373076920256595 32.01355014479653 L-2.359774357033113 31.977265234946742 L-2.469653271130669 31.799804695471938 L-2.872417805485656 31.149317637650306 L-2.890663911153504 31.119849165180185 L-2.8944492752361977 31.099599255901445 L-3.1 30.00000000000001 L-3.085007465443207 29.919797024011146 L-3.0090037396417424 29.513213002314984 L-2.985499170866622 29.387474665147334 L-2.9065431254754976 28.965097128601233 L-2.8906639111535033 28.88015083481984 L-2.2909276433840438 27.911543504695686 L-1.3817889029072692 27.22499379679932 L-0.2860319143362367 26.913224053485404 L0.8483552692234563 27.01834050616427 L1.510755940775526 27.348176848934703 L1.8681673727756947 27.52614659543127 L1.9270014741853796 27.590684530311 L2.3464407979453505 28.050787550739976 L2.635673120761803 28.36806029508021 L2.70411829377109 28.54473765276594 L3.0472166090200954 29.430376494768645 L3.0472166090200954 30.012809427287785 L3.047216609020096 30.56962350523138 L3.0158765674801074 30.650521477807107 L2.764650592837887 31.299010471702807 L2.635673120761805 31.631939704919812 L1.9488676083043854 32.38532946317186 L1.868167372775696 32.47385340456875 L1.235994515210407 32.78863808443555 L1.0116179749880296 32.90036432598211 L2.1459935421774117 32.78863808443555 L4.209517756015988 32.16267485762417 L6.111272563215625 31.14616573532801 L7.778174593052023 29.778174593052036 L9.146165735327997 28.111272563215636 L10.162674857624154 26.209517756016 L10.788638084435535 24.145993542177422 L10.910971662311804 22.903919881873833 L10.788638084435535 23.333877810022916 L10.775006203200693 23.381788902907278 L10.720481774566824 23.453990915089758 L10.162674857624154 24.192646648339366 L10.088456495304326 24.290927643384055 L9.11984916518017 24.890663911153517 L8.660317828007669 24.976565205557407 L7.999999999999999 25.100000000000012 L6.880150834819826 24.890663911153517 L5.911543504695673 24.290927643384055 L5.224993796799307 23.38178890290728 z"/>
<path fill="#000000" stroke="#000000" d="M-4.209517756015985 32.16267485762417 L-6.111272563215633 31.146165735328005 L-7.778174593052024 29.778174593052036 L-9.146165735327997 28.11127256321564 L-10.162674857624157 26.209517756015995 L-10.788638084435537 24.14599354217742 L-11 22.00000000000001 L-10.788638084435535 19.854006457822603 L-10.162674857624154 17.790482243984023 L-9.146165735328 15.88872743678439 L-7.778174593052022 14.22182540694799 L-6.111272563215625 12.853834264672019 L-4.209517756015987 11.83732514237586 L-2.1459935421774077 11.211361915564478 L6.735557395310443e-16 11.000000000000014 L2.1459935421774117 11.21136191556448 L4.209517756015988 11.83732514237586 L6.111272563215625 12.853834264672017 L7.778174593052023 14.221825406947993 L9.146165735327997 15.88872743678439 L10.162674857624154 17.790482243984027 L10.788638084435535 19.854006457822603 L11 22.000000000000014 L10.788638084435535 24.145993542177422 L10.162674857624154 26.209517756016 L9.146165735327997 28.111272563215636 L7.778174593052023 29.778174593052036 L6.111272563215625 31.14616573532801 L4.209517756015988 32.16267485762417 L2.1459935421774117 32.78863808443555 L6.735557395310443e-16 33.000000000000014 L-2.1459935421774152 32.78863808443555 z"/>
<path fill="#c0c0c0" stroke="#c0c0c0" d="M-3.0574603676645316 21.969666435111467 L-3.07626430124672 22.172593195980276 L-3.086775946514607 22.286031914336245 L-3.086775946514607 22.286031914336245 L-3.0692878866372904 22.0973056922789 L-2.981659493835738 21.151644730776553 L-2.981659493835738 21.151644730776553 L-3.0416633235073145 21.799189178950442 z"/>
<path fill="#c0c0c0" stroke="#c0c0c0" d="M-2.860077021860663 20.90747421151602 L-2.890361774220994 20.968294193125004 L-2.9308788849090375 21.049663520421326 L-2.9816594938357377 21.151644730776553 L-2.9816594938357377 21.151644730776553 L-2.813312402969697 20.81355819638541 L-2.4738534045687404 20.131832627224316 L-2.4738534045687404 20.131832627224316 z"/>
<path fill="#c0c0c0" stroke="#c0c0c0" d="M-2.4324242639426497 23.835440705806544 L-2.268377325077139 24.05267396024378 L-2.157111466093966 24.200013769336376 L-2.088456495304328 24.290927643384055 L-2.088456495304328 24.290927643384055 L-2.547366521831662 23.683232557783345 L-2.775006203200695 23.381788902907278 L-2.775006203200695 23.381788902907278 z"/>
<path fill="#c0c0c0" stroke="#c0c0c0" d="M-1.1198491651801714 24.890663911153517 L-1.1198491651801714 24.890663911153517 L-1.1254877695428716 24.88717263514234 L-2.0884564953043268 24.290927643384055 L-2.0884564953043268 24.290927643384055 L-1.4030364829816786 24.715321747434654 L-1.2961632158826728 24.78149487284975 L-1.216709898192587 24.83069028437657 z"/>
<path fill="#c0c0c0" stroke="#c0c0c0" d="M1.8982025386783972e-16 25.100000000000012 L1.8982025386783972e-16 25.100000000000012 L-1.1198491651801714 24.890663911153517 L-1.1198491651801714 24.890663911153517 L-0.11198491651801698 25.07906639111536 z"/>
<path fill="#c0c0c0" stroke="#c0c0c0" d="M-2.7750062032006944 23.381788902907278 L-2.7750062032006944 23.381788902907278 L-3.086775946514608 22.286031914336245 L-3.086775946514608 22.286031914336245 L-2.8061831775320853 23.272213204050175 z"/>
<path fill="#c0c0c0" stroke="#c0c0c0" d="M-2.389662034603847 20.055082052425707 L-2.473853404568741 20.131832627224316 L-2.473853404568741 20.131832627224316 L-1.6319397049198008 19.364326879238206 L-1.6319397049198008 19.364326879238206 z"/>
<path fill="#c0c0c0" stroke="#c0c0c0" d="M-0.5696235052313668 18.952783390979917 L-1.5257080849509574 19.32317253041238 L-1.6319397049198008 19.364326879238206 L-1.6319397049198008 19.364326879238206 L-0.5696235052313668 18.952783390979917 z"/>
<path fill="#c0c0c0" stroke="#c0c0c0" d="M-0.5696235052313668 18.952783390979917 L0.5696235052313693 18.952783390979917 L0.5696235052313693 18.952783390979917 L-0.4556988041850933 18.952783390979917 L-0.5696235052313668 18.952783390979917 z"/>
<path fill="#c0c0c0" stroke="#c0c0c0" d="M0.5696235052313693 18.952783390979917 L0.5696235052313693 18.952783390979917 L1.3876972775558343 19.269706858789004 L1.3990346357647419 19.274098974758147 L1.5707573507020252 19.34062470894087 L1.631939704919804 19.36432687923821 L1.631939704919804 19.36432687923821 L0.6758551252002127 18.993937739805745 z"/>
<path fill="#c0c0c0" stroke="#c0c0c0" d="M2.981659493835739 21.151644730776557 L3.0867759465146065 22.28603191433625 L3.0867759465146065 22.28603191433625 L2.992171139103626 21.265083449132526 L2.981659493835739 21.151644730776557 z"/>
<path fill="#c0c0c0" stroke="#c0c0c0" d="M1.631939704919804 19.36432687923821 L1.631939704919804 19.36432687923821 L2.4738534045687426 20.131832627224316 L2.4738534045687426 20.131832627224316 L1.7161310748846976 19.44107745403682 z"/>
<path fill="#c0c0c0" stroke="#c0c0c0" d="M2.4738534045687413 20.131832627224316 L2.4738534045687413 20.131832627224316 L2.4779412208881735 20.14004206907184 L2.5289869935016744 20.24255579989686 L2.5321110406340273 20.248829732299363 L2.9816594938357377 21.151644730776553 L2.9816594938357377 21.151644730776553 L2.5246340134954415 20.23381383757954 z"/>
<path fill="#c0c0c0" stroke="#c0c0c0" d="M1.1198491651801736 24.890663911153517 L1.8982025386783972e-16 25.100000000000012 L1.8982025386783972e-16 25.100000000000012 L1.0078642486621563 24.911597520038164 L1.1198491651801736 24.890663911153517 z"/>
<path fill="#c0c0c0" stroke="#c0c0c0" d="M3.0555989721832164 22.39560761319335 L3.086775946514607 22.28603191433625 L3.086775946514607 22.28603191433625 L2.775006203200693 23.38178890290728 L2.775006203200693 23.38178890290728 z"/>
<path fill="#c0c0c0" stroke="#c0c0c0" d="M2.775006203200695 23.381788902907278 L2.775006203200695 23.381788902907278 L2.088456495304329 24.29092764338405 L2.088456495304329 24.29092764338405 L2.7063512324110572 23.472702776954957 z"/>
<path fill="#c0c0c0" stroke="#c0c0c0" d="M1.9915957622919114 24.350901270161003 L2.0884564953043268 24.290927643384055 L2.0884564953043268 24.290927643384055 L1.1198491651801736 24.890663911153517 L1.1198491651801736 24.890663911153517 z"/>
<path fill="#c0c0c0" stroke="#c0c0c0" d="M1.5155444566227672 13.125000000000012 L1.5155444566227672 13.125000000000012 L1.6476491293983946 13.618021350715916 L1.7499999999999998 14.000000000000012 L1.7499999999999998 14.000000000000012 L1.6476491293983946 13.618021350715916 L1.5468051957397315 13.24166666666668 z"/>
<path fill="#c0c0c0" stroke="#c0c0c0" d="M0.8750000000000001 12.484455543377246 L1.061571340651125 12.67102688402837 L1.1036184960616342 12.71307403943888 L1.134237259112794 12.74369280249004 L1.5155444566227672 13.125000000000012 L1.5155444566227672 13.125000000000012 L0.9604059275497024 12.569861470926948 L0.8750000000000001 12.484455543377246 z"/>
<path fill="#c0c0c0" stroke="#c0c0c0" d="M-2.1431318985078678e-16 12.250000000000014 L0.3595465742595192 12.346340214214228 L0.8750000000000001 12.484455543377246 L0.8750000000000001 12.484455543377246 L0.1166666666666665 12.281260739116977 L-2.1431318985078678e-16 12.250000000000014 z"/>
<path fill="#c0c0c0" stroke="#c0c0c0" d="M-0.8749999999999998 12.484455543377246 L-2.1431318985078676e-16 12.250000000000012 L-2.1431318985078676e-16 12.250000000000012 L-0.7583333333333331 12.453194804260281 L-0.8749999999999998 12.484455543377246 z"/>
<path fill="#c0c0c0" stroke="#c0c0c0" d="M-0.8749999999999984 12.484455543377244 L-0.8749999999999984 12.484455543377244 L-1.4301385290730642 13.03959407245031 L-1.5155444566227663 13.125000000000012 L-1.5155444566227663 13.125000000000012 L-1.191793548623576 12.801249092000822 z"/>
<path fill="#c0c0c0" stroke="#c0c0c0" d="M-1.5155444566227674 13.125000000000012 L-1.5629199886873066 13.301807892700483 L-1.679112873209636 13.735445641215799 L-1.7187392608830354 13.883333333333345 L-1.7499999999999996 14.000000000000012 L-1.7499999999999996 14.000000000000012 L-1.679112873209636 13.735445641215799 L-1.627259162726175 13.541924959130554 L-1.5629199886873066 13.301807892700483 L-1.5155444566227674 13.125000000000012 z"/>
<path fill="#c0c0c0" stroke="#c0c0c0" d="M-1.5155444566227676 14.875000000000014 L-1.5155444566227676 14.875000000000014 L-1.6132423338001467 14.510386558582411 L-1.6984318778644372 14.19245485186085 L-1.7451586645716912 14.018068109794944 L-1.75 14.000000000000014 L-1.75 14.000000000000014 L-1.6984318778644372 14.19245485186085 L-1.5468051957397322 14.758333333333345 z"/>
<path fill="#c0c0c0" stroke="#c0c0c0" d="M1.643782113376465 14.396410549551636 L1.7187392608830356 14.11666666666668 L1.75 14.000000000000014 L1.75 14.000000000000014 L1.736443467193356 14.050593669208883 L1.643782113376465 14.396410549551636 L1.5155444566227676 14.875000000000014 L1.5155444566227676 14.875000000000014 z"/>
<path fill="#c0c0c0" stroke="#c0c0c0" d="M-0.8749999999999998 15.51554445662278 L-1.1762755363748152 15.214268920247966 L-1.4269751402899666 14.963569316332814 L-1.5155444566227672 14.875000000000014 L-1.5155444566227672 14.875000000000014 L-0.9604059275497021 15.430138529073078 L-0.8749999999999998 15.51554445662278 z"/>
<path fill="#c0c0c0" stroke="#c0c0c0" d="M0 15.750000000000014 L0 15.750000000000014 L-0.6054610903515301 15.587767189791855 L-0.8749999999999999 15.51554445662278 L-0.8749999999999999 15.51554445662278 L-0.11666666666666664 15.71873926088305 z"/>
<path fill="#c0c0c0" stroke="#c0c0c0" d="M0.8749999999999999 15.51554445662278 L0.5641773801519966 15.59882912660038 L0.3065467268607125 15.667861052095281 L0.20010639306990655 15.696381653576626 L0 15.750000000000014 L0 15.750000000000014 L0.7583333333333331 15.546805195739745 L0.8749999999999999 15.51554445662278 z"/>
<path fill="#c0c0c0" stroke="#c0c0c0" d="M0.8749999999999998 15.51554445662278 L1.2911959254163872 15.099348531206394 L1.4301385290730648 14.960405927549717 L1.5155444566227672 14.875000000000014 L1.5155444566227672 14.875000000000014 L1.5027399939640396 14.88780446265874 L1.2911959254163872 15.099348531206394 L0.9094022037317168 15.481142252891065 L0.8749999999999998 15.51554445662278 z"/>
<path fill="#c0c0c0" stroke="#c0c0c0" d="M-1.5155444566227683 30.87500000000001 L-1.5351572043393529 30.801804229045686 L-1.7500000000000009 30.00000000000001 L-1.7500000000000009 30.00000000000001 L-1.5468051957397324 30.758333333333344 L-1.5155444566227683 30.87500000000001 z"/>
<path fill="#c0c0c0" stroke="#c0c0c0" d="M-0.8750000000000001 31.51554445662278 L-0.8750000000000001 31.51554445662278 L-0.9077712421107778 31.482773214512 L-1.011355009599138 31.37918944702364 L-1.0283026947113247 31.362241761911456 L-1.1036184960616342 31.286925960561145 L-1.1233625697434806 31.2671818868793 L-1.1905000384885964 31.200044418134183 L-1.5155444566227672 30.875000000000014 L-1.5155444566227672 30.875000000000014 L-0.9604059275497024 31.430138529073076 z"/>
<path fill="#c0c0c0" stroke="#c0c0c0" d="M-0.8750000000000001 31.51554445662278 L-0.1351086872486233 31.713797736361315 L-0.1166666666666665 31.718739260883048 L2.1431318985078678e-16 31.75000000000001 L2.1431318985078678e-16 31.75000000000001 L-0.1351086872486233 31.713797736361315 L-0.3595465742595192 31.6536597857858 L-0.7341722402624415 31.55327914111634 L-0.8653750151087475 31.518123463551554 L-0.8750000000000001 31.51554445662278 z"/>
<path fill="#c0c0c0" stroke="#c0c0c0" d="M2.1431318985078676e-16 31.750000000000014 L2.1431318985078676e-16 31.750000000000014 L0.7583333333333331 31.546805195739744 L0.8749999999999998 31.51554445662278 L0.8749999999999998 31.51554445662278 L0.1893519367420235 31.69926330146472 z"/>
<path fill="#c0c0c0" stroke="#c0c0c0" d="M0.8750000000000018 31.515544456622777 L0.8750000000000018 31.515544456622777 L1.4301385290730675 30.96040592754971 L1.5155444566227696 30.87500000000001 L1.5155444566227696 30.87500000000001 L0.9635630564963287 31.42698140012645 z"/>
<path fill="#c0c0c0" stroke="#c0c0c0" d="M1.5155444566227683 30.87500000000001 L1.5291470245646799 30.824234525327388 L1.718739260883036 30.116666666666678 L1.7500000000000004 30.00000000000001 L1.7500000000000004 30.00000000000001 L1.5291470245646799 30.824234525327388 L1.5155444566227683 30.87500000000001 z"/>
<path fill="#c0c0c0" stroke="#c0c0c0" d="M1.5155444566227674 29.12500000000001 L1.6060226893925669 29.462669361675946 L1.613242333800146 29.489613441417614 L1.6153374873182083 29.49743266079668 L1.6571776354680385 29.653582219488055 L1.7499999999999998 30.00000000000001 L1.7499999999999998 30.00000000000001 L1.5468051957397309 29.241666666666674 L1.5155444566227674 29.12500000000001 z"/>
<path fill="#c0c0c0" stroke="#c0c0c0" d="M-1.5155444566227674 29.12500000000001 L-1.718739260883035 29.883333333333344 L-1.7499999999999998 30.00000000000001 L-1.7499999999999998 30.00000000000001 L-1.5155444566227674 29.12500000000001 z"/>
<path fill="#c0c0c0" stroke="#c0c0c0" d="M0.8749999999999998 28.484455543377244 L0.8749999999999998 28.484455543377244 L1.0496449347301182 28.659100478107362 L1.0721675180592372 28.681623061436483 L1.3923288915249536 29.0017844349022 L1.4192130612630867 29.02866860464033 L1.5155444566227672 29.12500000000001 L1.5155444566227672 29.12500000000001 L0.9604059275497021 28.56986147092695 z"/>
<path fill="#c0c0c0" stroke="#c0c0c0" d="M0 28.250000000000014 L0.7665498217621657 28.455396405699407 L0.8749999999999999 28.484455543377244 L0.8749999999999999 28.484455543377244 L0.11666666666666664 28.281260739116977 L0 28.250000000000014 z"/>
<path fill="#c0c0c0" stroke="#c0c0c0" d="M-0.8749999999999999 28.484455543377244 L-0.5641773801519966 28.401170873399646 L0 28.250000000000014 L0 28.250000000000014 L-0.7583333333333331 28.45319480426028 L-0.8749999999999999 28.484455543377244 z"/>
<path fill="#c0c0c0" stroke="#c0c0c0" d="M-1.5155444566227672 29.12500000000001 L-1.5155444566227672 29.12500000000001 L-0.8749999999999998 28.484455543377244 L-0.8749999999999998 28.484455543377244 L-1.4301385290730648 29.03959407245031 z"/>
<path fill="#c0c0c0" stroke="#c0c0c0" d="M7.999999999999999 23.750000000000014 L8.758333333333331 23.546805195739744 L8.875 23.51554445662278 L8.875 23.51554445662278 L7.999999999999999 23.750000000000014 z"/>
<path fill="#c0c0c0" stroke="#c0c0c0" d="M9.515544456622768 22.87500000000001 L9.286925960561135 23.103618496061646 L8.875000000000002 23.515544456622777 L8.875000000000002 23.515544456622777 L9.430138529073066 22.960405927549715 L9.515544456622768 22.87500000000001 z"/>
<path fill="#c0c0c0" stroke="#c0c0c0" d="M9.75 22.00000000000001 L9.653659785785784 22.359546574259532 L9.54445581189312 22.767101353215377 L9.515544456622766 22.87500000000001 L9.515544456622766 22.87500000000001 L9.718739260883035 22.116666666666678 L9.75 22.00000000000001 z"/>
<path fill="#c0c0c0" stroke="#c0c0c0" d="M9.749999999999998 22.00000000000001 L9.546805195739731 21.241666666666678 L9.515544456622766 21.12500000000001 L9.515544456622766 21.12500000000001 L9.749999999999998 22.00000000000001 z"/>
<path fill="#c0c0c0" stroke="#c0c0c0" d="M8.874999999999998 20.484455543377244 L8.874999999999998 20.484455543377244 L9.515544456622766 21.12500000000001 L9.515544456622766 21.12500000000001 L8.9604059275497 20.569861470926945 z"/>
<path fill="#c0c0c0" stroke="#c0c0c0" d="M7.999999999999999 20.25000000000001 L7.999999999999999 20.25000000000001 L8.874999999999998 20.484455543377244 L8.874999999999998 20.484455543377244 L8.116666666666665 20.281260739116977 z"/>
<path fill="#c0c0c0" stroke="#c0c0c0" d="M7.124999999999999 20.484455543377244 L7.124999999999999 20.484455543377244 L7.489613441417602 20.386757666199866 L7.999999999999999 20.250000000000014 L7.999999999999999 20.250000000000014 L7.241666666666665 20.45319480426028 z"/>
<path fill="#c0c0c0" stroke="#c0c0c0" d="M7.999999999999999 23.75000000000001 L7.124999999999999 23.51554445662278 L7.124999999999999 23.51554445662278 L7.883333333333332 23.718739260883048 L7.999999999999999 23.75000000000001 z"/>
<path fill="#c0c0c0" stroke="#c0c0c0" d="M6.4844555433772335 21.12500000000001 L7.125000000000002 20.484455543377244 L7.125000000000002 20.484455543377244 L6.569861470926936 21.03959407245031 L6.4844555433772335 21.12500000000001 z"/>
<path fill="#c0c0c0" stroke="#c0c0c0" d="M6.25 22.00000000000001 L6.25 22.00000000000001 L6.484455543377233 21.12500000000001 L6.484455543377233 21.12500000000001 L6.281260739116965 21.883333333333344 z"/>
<path fill="#c0c0c0" stroke="#c0c0c0" d="M6.484455543377231 22.87500000000001 L6.401170873399633 22.564177380152007 L6.378040066442417 22.47785203336761 L6.249999999999999 22.00000000000001 L6.249999999999999 22.00000000000001 L6.453194804260267 22.758333333333344 L6.484455543377231 22.87500000000001 z"/>
<path fill="#c0c0c0" stroke="#c0c0c0" d="M7.1249999999999964 23.515544456622777 L6.484455543377229 22.87500000000001 L6.484455543377229 22.87500000000001 L7.039594072450294 23.430138529073076 L7.1249999999999964 23.515544456622777 z"/>
<path fill="#c0c0c0" stroke="#c0c0c0" d="M-9.636861607424173 21.57776177062036 L-9.718739260883034 21.883333333333344 L-9.749999999999998 22.00000000000001 L-9.749999999999998 22.00000000000001 L-9.726793715070983 21.913392965590003 L-9.636861607424173 21.57776177062036 L-9.515544456622766 21.12500000000001 L-9.515544456622766 21.12500000000001 z"/>
<path fill="#c0c0c0" stroke="#c0c0c0" d="M-7.999999999999999 23.75000000000001 L-7.2416666666666645 23.546805195739744 L-7.124999999999998 23.51554445662278 L-7.124999999999998 23.51554445662278 L-7.999999999999999 23.75000000000001 z"/>
<path fill="#c0c0c0" stroke="#c0c0c0" d="M-6.48445554337723 22.87500000000001 L-6.48445554337723 22.87500000000001 L-6.7130740394388635 23.103618496061646 L-7.1249999999999964 23.515544456622777 L-7.1249999999999964 23.515544456622777 L-6.569861470926933 22.960405927549715 z"/>
<path fill="#c0c0c0" stroke="#c0c0c0" d="M-6.484455543377232 22.87500000000001 L-6.484455543377232 22.87500000000001 L-6.281260739116964 22.116666666666678 L-6.249999999999999 22.00000000000001 L-6.249999999999999 22.00000000000001 L-6.346340214214214 22.359546574259532 z"/>
<path fill="#c0c0c0" stroke="#c0c0c0" d="M-6.25 22.00000000000001 L-6.453194804260268 21.241666666666678 L-6.484455543377232 21.12500000000001 L-6.484455543377232 21.12500000000001 L-6.25 22.00000000000001 z"/>
<path fill="#c0c0c0" stroke="#c0c0c0" d="M-6.484455543377232 21.125000000000014 L-7.039594072450297 20.56986147092695 L-7.125 20.484455543377244 L-7.125 20.484455543377244 L-6.484455543377232 21.125000000000014 z"/>
<path fill="#c0c0c0" stroke="#c0c0c0" d="M-7.124999999999999 20.484455543377244 L-7.883333333333333 20.281260739116977 L-7.999999999999999 20.250000000000014 L-7.999999999999999 20.250000000000014 L-7.124999999999999 20.484455543377244 z"/>
<path fill="#c0c0c0" stroke="#c0c0c0" d="M-8.874999999999998 20.484455543377244 L-8.874999999999998 20.484455543377244 L-8.510386558582395 20.386757666199866 L-7.999999999999999 20.25000000000001 L-7.999999999999999 20.25000000000001 L-8.758333333333333 20.45319480426028 z"/>
<path fill="#c0c0c0" stroke="#c0c0c0" d="M-8.225855045014189 23.689482323081965 L-8.554433789768382 23.601439913775046 L-8.874999999999998 23.51554445662278 L-8.874999999999998 23.51554445662278 L-8.225855045014189 23.689482323081965 L-8.116666666666665 23.718739260883048 L-7.999999999999999 23.750000000000014 L-7.999999999999999 23.750000000000014 z"/>
<path fill="#c0c0c0" stroke="#c0c0c0" d="M-8.874999999999996 20.484455543377244 L-8.874999999999996 20.484455543377244 L-9.430138529073062 21.03959407245031 L-9.515544456622765 21.12500000000001 L-9.515544456622765 21.12500000000001 L-9.289800388730368 20.899255932107614 z"/>
<path fill="#c0c0c0" stroke="#c0c0c0" d="M-9.515544456622768 22.87500000000001 L-9.598829126600366 22.564177380152007 L-9.75 22.00000000000001 L-9.75 22.00000000000001 L-9.546805195739731 22.758333333333344 L-9.515544456622768 22.87500000000001 z"/>
<path fill="#c0c0c0" stroke="#c0c0c0" d="M-8.875000000000002 23.515544456622777 L-9.476364192425386 22.914180264197395 L-9.51554445662277 22.87500000000001 L-9.51554445662277 22.87500000000001 L-8.960405927549704 23.430138529073076 L-8.875000000000002 23.515544456622777 z"/>
<path fill="#c0c0c0" stroke="#c0c0c0" d="M-4.209517756015984 32.16267485762417 L-2.145993542177415 32.78863808443555 L-2.145993542177415 32.78863808443555 L-4.209517756015984 32.16267485762417 z"/>
<path fill="#c0c0c0" stroke="#c0c0c0" d="M-6.111272563215632 31.146165735328005 L-4.209517756015984 32.16267485762417 L-4.209517756015984 32.16267485762417 L-6.111272563215632 31.146165735328005 z"/>
<path fill="#c0c0c0" stroke="#c0c0c0" d="M-7.7781745930520225 29.778174593052036 L-6.111272563215632 31.146165735328005 L-6.111272563215632 31.146165735328005 L-7.7781745930520225 29.778174593052036 z"/>
<path fill="#c0c0c0" stroke="#c0c0c0" d="M-9.146165735328001 28.111272563215632 L-7.778174593052028 29.77817459305203 L-7.778174593052028 29.77817459305203 L-9.146165735328001 28.111272563215632 z"/>
<path fill="#c0c0c0" stroke="#c0c0c0" d="M-10.162674857624157 26.20951775601599 L-9.146165735327997 28.111272563215636 L-9.146165735327997 28.111272563215636 L-10.162674857624157 26.20951775601599 z"/>
<path fill="#c0c0c0" stroke="#c0c0c0" d="M-10.788638084435537 24.14599354217742 L-10.162674857624157 26.209517756015995 L-10.162674857624157 26.209517756015995 L-10.788638084435537 24.14599354217742 z"/>
<path fill="#c0c0c0" stroke="#c0c0c0" d="M-10.910971662311805 22.903919881873826 L-10.788638084435537 24.145993542177415 L-10.788638084435537 24.145993542177415 L-11 22.000000000000007 L-11 22.000000000000007 L-10.990810108753779 22.093306531666475 L-10.969672292562388 22.30792238107964 L-10.960489458526999 22.401157259682076 z"/>
<path fill="#c0c0c0" stroke="#c0c0c0" d="M-10.906662975936742 21.052333291213422 L-10.999999999999998 22.000000000000007 L-10.999999999999998 22.000000000000007 L-10.788638084435533 19.8540064578226 L-10.788638084435533 19.8540064578226 L-10.900364325982096 20.988382025011983 z"/>
<path fill="#c0c0c0" stroke="#c0c0c0" d="M-10.162674857624152 17.790482243984023 L-10.788638084435533 19.854006457822603 L-10.788638084435533 19.854006457822603 L-10.162674857624152 17.790482243984023 z"/>
<path fill="#c0c0c0" stroke="#c0c0c0" d="M-9.146165735327997 15.88872743678439 L-10.162674857624152 17.790482243984023 L-10.162674857624152 17.790482243984023 L-9.146165735327997 15.88872743678439 z"/>
<path fill="#c0c0c0" stroke="#c0c0c0" d="M-7.778174593052021 14.221825406947989 L-9.146165735327997 15.88872743678439 L-9.146165735327997 15.88872743678439 L-7.778174593052021 14.221825406947989 z"/>
<path fill="#c0c0c0" stroke="#c0c0c0" d="M-6.111272563215624 12.853834264672017 L-7.778174593052021 14.221825406947989 L-7.778174593052021 14.221825406947989 L-6.111272563215624 12.853834264672017 z"/>
<path fill="#c0c0c0" stroke="#c0c0c0" d="M9.146165735327994 15.888727436784388 L7.778174593052021 14.221825406947989 L7.778174593052021 14.221825406947989 L9.146165735327994 15.888727436784388 z"/>
<path fill="#c0c0c0" stroke="#c0c0c0" d="M-2.1459935421774072 11.211361915564476 L-4.209517756015986 11.837325142375859 L-4.209517756015986 11.837325142375859 L-2.1459935421774072 11.211361915564476 z"/>
<path fill="#c0c0c0" stroke="#c0c0c0" d="M-1.011617974988028 11.099635674017916 L-2.1459935421774072 11.211361915564476 L-2.1459935421774072 11.211361915564476 L6.735557395310442e-16 11.000000000000014 L6.735557395310442e-16 11.000000000000014 L-0.5071914078253822 11.049953993527431 z"/>
<path fill="#c0c0c0" stroke="#c0c0c0" d="M-4.209517756015986 11.837325142375859 L-6.111272563215624 12.853834264672017 L-6.111272563215624 12.853834264672017 L-4.209517756015986 11.837325142375859 z"/>
<path fill="#c0c0c0" stroke="#c0c0c0" d="M0.9039198818738183 11.089028337688207 L6.735557395310442e-16 11.000000000000012 L6.735557395310442e-16 11.000000000000012 L2.1459935421774112 11.211361915564478 L2.1459935421774112 11.211361915564478 z"/>
<path fill="#c0c0c0" stroke="#c0c0c0" d="M4.2095177560159875 11.837325142375859 L2.1459935421774112 11.211361915564478 L2.1459935421774112 11.211361915564478 L4.2095177560159875 11.837325142375859 z"/>
<path fill="#c0c0c0" stroke="#c0c0c0" d="M6.111272563215624 12.853834264672015 L4.2095177560159875 11.837325142375859 L4.2095177560159875 11.837325142375859 L6.111272563215624 12.853834264672015 z"/>
<path fill="#c0c0c0" stroke="#c0c0c0" d="M7.778174593052022 14.22182540694799 L6.111272563215624 12.853834264672015 L6.111272563215624 12.853834264672015 L7.778174593052022 14.22182540694799 z"/>
<path fill="#c0c0c0" stroke="#c0c0c0" d="M10.162674857624152 17.790482243984023 L9.146165735327996 15.88872743678439 L9.146165735327996 15.88872743678439 L10.162674857624152 17.790482243984023 z"/>
<path fill="#c0c0c0" stroke="#c0c0c0" d="M10.162674857624154 26.209517756015998 L10.788638084435535 24.145993542177422 L10.788638084435535 24.145993542177422 L10.162674857624154 26.209517756015998 z"/>
<path fill="#c0c0c0" stroke="#c0c0c0" d="M10.900364325982094 20.98838202501198 L10.788638084435533 19.8540064578226 L10.788638084435533 19.8540064578226 L10.999999999999998 22.00000000000001 L10.999999999999998 22.00000000000001 L10.950046006472581 21.492808592174633 z"/>
<path fill="#c0c0c0" stroke="#c0c0c0" d="M10.910971662311805 22.90391988187383 L11 22.00000000000001 L11 22.00000000000001 L10.788638084435535 24.145993542177422 L10.788638084435535 24.145993542177422 z"/>
<path fill="#c0c0c0" stroke="#c0c0c0" d="M10.788638084435533 19.8540064578226 L10.162674857624152 17.790482243984023 L10.162674857624152 17.790482243984023 L10.788638084435533 19.8540064578226 z"/>
<path fill="#c0c0c0" stroke="#c0c0c0" d="M9.146165735327997 28.111272563215636 L10.162674857624154 26.209517756015998 L10.162674857624154 26.209517756015998 L9.146165735327997 28.111272563215636 z"/>
<path fill="#c0c0c0" stroke="#c0c0c0" d="M7.778174593052023 29.778174593052032 L9.146165735327997 28.111272563215636 L9.146165735327997 28.111272563215636 L7.778174593052023 29.778174593052032 z"/>
<path fill="#c0c0c0" stroke="#c0c0c0" d="M2.1459935421774112 32.78863808443555 L4.2095177560159875 32.16267485762417 L4.2095177560159875 32.16267485762417 L2.1459935421774112 32.78863808443555 z"/>
<path fill="#c0c0c0" stroke="#c0c0c0" d="M6.111272563215624 31.14616573532801 L7.778174593052022 29.778174593052036 L7.778174593052022 29.778174593052036 L6.111272563215624 31.14616573532801 z"/>
<path fill="#c0c0c0" stroke="#c0c0c0" d="M4.2095177560159875 32.16267485762417 L6.111272563215624 31.14616573532801 L6.111272563215624 31.14616573532801 L4.2095177560159875 32.16267485762417 z"/>
<path fill="#c0c0c0" stroke="#c0c0c0" d="M1.0116179749880296 32.90036432598211 L2.1459935421774112 32.78863808443555 L2.1459935421774112 32.78863808443555 L6.735557395310442e-16 33.000000000000014 L6.735557395310442e-16 33.000000000000014 L0.507191407825381 32.95004600647259 z"/>
<path fill="#c0c0c0" stroke="#c0c0c0" d="M-0.903919881873822 32.910971662311816 L6.735557395310442e-16 33.00000000000001 L6.735557395310442e-16 33.00000000000001 L-2.145993542177415 32.78863808443555 L-2.145993542177415 32.78863808443555 z"/>
<path fill="#c0c0c0" stroke="#c0c0c0" d="M9.146165735327997 15.88872743678439 L7.778174593052023 14.221825406947993 L6.111272563215625 12.853834264672017 L4.209517756015988 11.83732514237586 L2.1459935421774117 11.21136191556448 L6.735557395310443e-16 11.000000000000014 L-2.1459935421774077 11.211361915564478 L-4.209517756015987 11.83732514237586 L-6.111272563215625 12.853834264672019 L-7.778174593052022 14.22182540694799 L-9.146165735328 15.88872743678439 L-10.162674857624154 17.790482243984023 L-10.788638084435535 19.854006457822603 L-11 22.00000000000001 L-10.788638084435537 24.14599354217742 L-10.162674857624157 26.209517756015995 L-9.146165735327997 28.11127256321564 L-7.778174593052024 29.778174593052036 L-6.111272563215633 31.146165735328005 L-4.209517756015985 32.16267485762417 L-2.1459935421774152 32.78863808443555 L6.735557395310443e-16 33.000000000000014 L2.1459935421774117 32.78863808443555 L4.209517756015988 32.16267485762417 L6.111272563215625 31.14616573532801 L7.778174593052023 29.778174593052036 L9.146165735327997 28.111272563215636 L10.162674857624154 26.209517756016 L10.788638084435535 24.145993542177422 L11 22.000000000000014 L10.788638084435535 19.854006457822603 L10.162674857624154 17.790482243984027 M-7.241666666666665 23.546805195739744 L-8 23.750000000000014 L-8.116666666666665 23.718739260883048 L-8.225855045014189 23.689482323081965 L-8.875 23.51554445662278 L-8.960405927549703 23.430138529073076 L-9.515544456622766 22.87500000000001 L-9.546805195739731 22.758333333333347 L-9.75 22.000000000000014 L-9.718739260883035 21.883333333333347 L-9.636861607424175 21.57776177062036 L-9.515544456622766 21.125000000000014 L-9.430138529073064 21.03959407245031 L-8.875 20.484455543377244 L-8.758333333333333 20.45319480426028 L-8 20.250000000000014 L-7.883333333333333 20.281260739116977 L-7.125 20.484455543377244 L-7.0395940724502974 20.56986147092695 L-6.484455543377232 21.125000000000014 L-6.453194804260267 21.241666666666678 L-6.25 22.00000000000001 L-6.281260739116964 22.116666666666678 L-6.484455543377232 22.875000000000014 L-6.569861470926934 22.960405927549715 L-7.124999999999999 23.51554445662278 z"/>
<path fill="#c0c0c0" stroke="#c0c0c0" d="M6.735557395310443e-16 11.000000000000014 L0.9039198818738183 11.089028337688207 L2.1459935421774117 11.21136191556448 L4.209517756015988 11.83732514237586 L6.111272563215625 12.853834264672017 L7.778174593052023 14.221825406947993 L9.146165735327997 15.88872743678439 L10.162674857624154 17.790482243984027 L10.788638084435535 19.854006457822603 L10.900364325982094 20.988382025011983 L10.950046006472581 21.492808592174633 L11 22.000000000000014 L10.910971662311804 22.903919881873833 L10.788638084435535 24.145993542177422 L10.162674857624154 26.209517756016 L9.146165735327997 28.111272563215636 L7.778174593052023 29.778174593052036 L6.111272563215625 31.14616573532801 L4.209517756015988 32.16267485762417 L2.1459935421774117 32.78863808443555 L1.0116179749880296 32.90036432598211 L0.507191407825381 32.95004600647259 L6.735557395310443e-16 33.000000000000014 L-0.903919881873822 32.910971662311816 L-2.1459935421774152 32.78863808443555 L-4.209517756015985 32.16267485762417 L-6.111272563215633 31.146165735328005 L-7.778174593052024 29.778174593052036 L-9.146165735327997 28.11127256321564 L-10.162674857624157 26.209517756015995 L-10.788638084435537 24.14599354217742 L-10.910971662311805 22.90391988187383 L-10.960489458526999 22.401157259682076 L-10.969672292562388 22.307922381079642 L-10.990810108753779 22.093306531666478 L-11 22.00000000000001 L-10.906662975936742 21.052333291213422 L-10.900364325982096 20.988382025011983 L-10.788638084435535 19.854006457822603 L-10.162674857624154 17.790482243984023 L-9.146165735328 15.88872743678439 L-7.778174593052022 14.22182540694799 L-6.111272563215625 12.853834264672019 L-4.209517756015987 11.83732514237586 L-2.1459935421774077 11.211361915564478 L-1.011617974988028 11.099635674017916 L-0.5071914078253822 11.049953993527431 M-1.1905000384885964 31.200044418134183 L-1.1233625697434808 31.2671818868793 L-1.1036184960616342 31.286925960561145 L-1.0283026947113247 31.362241761911456 L-1.0113550095991382 31.37918944702364 L-0.9077712421107779 31.482773214512 L-0.8750000000000002 31.51554445662278 L-0.8653750151087476 31.518123463551554 L-0.7341722402624415 31.55327914111634 L-0.35954657425951925 31.6536597857858 L-0.1351086872486233 31.713797736361315 L2.143131898507868e-16 31.750000000000014 L0.18935193674202352 31.69926330146472 L0.8749999999999999 31.51554445662278 L0.9635630564963268 31.426981400126454 L1.5155444566227678 30.87500000000001 L1.5291470245646783 30.824234525327395 L1.75 30.00000000000001 L1.657177635468039 29.653582219488055 L1.6153374873182094 29.497432660796683 L1.6132423338001467 29.489613441417614 L1.606022689392567 29.462669361675946 L1.5155444566227676 29.12500000000001 L1.4192130612630867 29.02866860464033 L1.3923288915249539 29.0017844349022 L1.0721675180592374 28.681623061436483 L1.0496449347301182 28.659100478107362 L0.8749999999999999 28.484455543377244 L0.7665498217621657 28.455396405699407 L0 28.250000000000014 L-0.5641773801519967 28.401170873399646 L-0.8749999999999999 28.484455543377244 L-1.5155444566227676 29.12500000000001 L-1.75 30.00000000000001 L-1.5351572043393522 30.801804229045686 L-1.5155444566227674 30.875000000000014 z"/>
<path fill="#c0c0c0" stroke="#c0c0c0" d="M0.23820027285176715 25.055472652004056 L0.2799622912950436 25.047665977788387 L1.1198491651801736 24.890663911153517 L1.1198491651801736 24.890663911153517 L0.23820027285176715 25.055472652004056 L1.8982025386783972e-16 25.100000000000012 L1.8982025386783972e-16 25.100000000000012 z"/>
<path fill="#c0c0c0" stroke="#c0c0c0" d="M-1.846304662773288 24.44086171032642 L-1.4790959234175014 24.668227735736675 L-1.1198491651801714 24.890663911153517 L-1.1198491651801714 24.890663911153517 L-1.3360494720881555 24.756798348584436 L-1.4790959234175014 24.668227735736675 L-2.0884564953043268 24.290927643384055 L-2.0884564953043268 24.290927643384055 z"/>
<path fill="#c0c0c0" stroke="#c0c0c0" d="M-2.088456495304328 24.290927643384055 L-2.775006203200695 23.381788902907278 L-2.775006203200695 23.381788902907278 L-2.603368776226603 23.609073588026472 L-2.088456495304328 24.290927643384055 z"/>
<path fill="#c0c0c0" stroke="#c0c0c0" d="M1.8982025386783972e-16 25.100000000000012 L1.8982025386783972e-16 25.100000000000012 L-0.8628801025688035 24.93869975401005 L-1.0989896023545433 24.894563239235136 L-1.1198491651801714 24.890663911153517 L-1.1198491651801714 24.890663911153517 L-0.8628801025688035 24.93869975401005 L-0.8398868738851286 24.94299793336514 z"/>
<path fill="#c0c0c0" stroke="#c0c0c0" d="M-2.7750062032006944 23.381788902907278 L-3.086775946514608 22.286031914336245 L-3.086775946514608 22.286031914336245 L-3.0088335106861295 22.559971161479 L-2.7750062032006944 23.381788902907278 z"/>
<path fill="#c0c0c0" stroke="#c0c0c0" d="M-3.086775946514607 22.286031914336245 L-3.086775946514607 22.286031914336245 L-2.981659493835738 21.151644730776553 L-2.981659493835738 21.151644730776553 L-3.0079386070054555 21.435241526666477 z"/>
<path fill="#c0c0c0" stroke="#c0c0c0" d="M-2.9816594938357377 21.151644730776553 L-2.9816594938357377 21.151644730776553 L-2.4738534045687404 20.131832627224316 L-2.4738534045687404 20.131832627224316 L-2.60080492688549 20.386785653112376 z"/>
<path fill="#c0c0c0" stroke="#c0c0c0" d="M-2.473853404568741 20.131832627224316 L-2.473853404568741 20.131832627224316 L-1.6319397049198008 19.364326879238206 L-1.6319397049198008 19.364326879238206 L-1.842418129832036 19.556203316234736 z"/>
<path fill="#c0c0c0" stroke="#c0c0c0" d="M-0.8352025551534753 19.05566926304449 L-1.479095923417502 19.305114882832154 L-1.6319397049198008 19.364326879238206 L-1.6319397049198008 19.364326879238206 L-1.479095923417502 19.305114882832154 L-0.9820146571992465 19.112544574380387 L-0.5696235052313668 18.952783390979917 L-0.5696235052313668 18.952783390979917 z"/>
<path fill="#c0c0c0" stroke="#c0c0c0" d="M-0.5696235052313668 18.952783390979917 L-0.5696235052313668 18.952783390979917 L-0.044978699041922234 18.952783390979917 L0.5696235052313693 18.952783390979917 L0.5696235052313693 18.952783390979917 L0.28481175261568525 18.952783390979917 z"/>
<path fill="#c0c0c0" stroke="#c0c0c0" d="M1.3663606549976952 19.261441007173637 L0.8615378309690421 19.065871603248432 L0.5696235052313693 18.952783390979917 L0.5696235052313693 18.952783390979917 L0.8615378309690421 19.065871603248432 L1.631939704919804 19.36432687923821 L1.631939704919804 19.36432687923821 z"/>
<path fill="#c0c0c0" stroke="#c0c0c0" d="M3.0604968333448896 22.002435118446325 L3.0434141210060695 21.818083292982845 L2.981659493835739 21.151644730776557 L2.981659493835739 21.151644730776557 L3.0434141210060695 21.818083292982845 L3.0867759465146065 22.28603191433625 L3.0867759465146065 22.28603191433625 z"/>
<path fill="#c0c0c0" stroke="#c0c0c0" d="M1.631939704919804 19.36432687923821 L2.4738534045687426 20.131832627224316 L2.4738534045687426 20.131832627224316 L2.2633749796565077 19.93995619022779 L1.631939704919804 19.36432687923821 z"/>
<path fill="#c0c0c0" stroke="#c0c0c0" d="M2.8547079715189887 20.896691704888493 L2.4738534045687413 20.131832627224316 L2.4738534045687413 20.131832627224316 L2.9816594938357377 21.151644730776553 L2.9816594938357377 21.151644730776553 z"/>
<path fill="#c0c0c0" stroke="#c0c0c0" d="M2.8529486390291714 23.10784965576452 L3.086775946514607 22.28603191433625 L3.086775946514607 22.28603191433625 L2.775006203200693 23.38178890290728 L2.775006203200693 23.38178890290728 z"/>
<path fill="#c0c0c0" stroke="#c0c0c0" d="M2.088456495304329 24.29092764338405 L2.2600939222784207 24.06364295826486 L2.775006203200695 23.381788902907278 L2.775006203200695 23.381788902907278 L2.088456495304329 24.29092764338405 z"/>
<path fill="#c0c0c0" stroke="#c0c0c0" d="M1.362000997711212 24.740729844211153 L2.0884564953043268 24.290927643384055 L2.0884564953043268 24.290927643384055 L1.1198491651801736 24.890663911153517 L1.1198491651801736 24.890663911153517 z"/>
<path fill="#c0c0c0" stroke="#c0c0c0" d="M0.2985981124961461 16.792931927204826 L0.2985981124961461 16.792931927204826 L0.2985981124961461 16.792931927204826 L-0.2985981124961418 16.792931927204826 L-0.2985981124961418 16.792931927204826 L-0.2985981124961418 16.792931927204826 z"/>
<path fill="#c0c0c0" stroke="#c0c0c0" d="M3.214697847761802e-16 27.250000000000014 L-0.2985981124961438 27.2070680727952 L0.29859811249614465 27.2070680727952 z"/>
<path fill="#c0c0c0" stroke="#c0c0c0" d="M3.818672312345424e-15 16.750000000000014 L0.29859811249614615 16.792931927204826 L-0.2985981124961418 16.792931927204826 z"/>
<path fill="#c0c0c0" stroke="#c0c0c0" d="M3.214697847761802e-16 27.250000000000014 L0.29859811249614465 27.2070680727952 L-0.2985981124961438 27.2070680727952 z"/>
<path fill="#c0c0c0" stroke="#c0c0c0" d="M3.818672312345424e-15 16.750000000000014 L-0.2985981124961418 16.792931927204826 L0.29859811249614615 16.792931927204826 z"/>
<path fill="#c0c0c0" stroke="#c0c0c0" d="M0.29859811249614465 27.2070680727952 L0.29859811249614465 27.2070680727952 L0.29859811249614465 27.2070680727952 L-0.2985981124961438 27.2070680727952 L-0.2985981124961438 27.2070680727952 L-0.2985981124961438 27.2070680727952 z"/>
<path fill="#c0c0c0" stroke="#c0c0c0" d="M-2.8383642916418856 26.416581047363714 L-1.479095923417501 27.037338111476124 L-1.479095923417501 27.037338111476124 L-2.8383642916418856 26.416581047363714 z"/>
<path fill="#c0c0c0" stroke="#c0c0c0" d="M-3.9676852653598544 25.43801885321276 L-2.838364291641886 26.416581047363714 L-2.838364291641886 26.416581047363714 L-3.9676852653598544 25.43801885321276 z"/>
<path fill="#c0c0c0" stroke="#c0c0c0" d="M-4.775567975611222 24.180928818259915 L-3.967685265359856 25.438018853212757 L-3.967685265359856 25.438018853212757 L-4.775567975611222 24.180928818259915 z"/>
<path fill="#c0c0c0" stroke="#c0c0c0" d="M-5.119295854265234 23.010299168277474 L-4.775567975611222 24.18092881825991 L-4.775567975611222 24.18092881825991 L-5.196562569874898 22.747152900934758 L-5.196562569874898 22.747152900934758 L-5.173472844729234 22.825789283212803 z"/>
<path fill="#c0c0c0" stroke="#c0c0c0" d="M-5.196562569874896 21.252847099065264 L-5.196562569874897 22.747152900934758 L-5.196562569874897 22.747152900934758 L-5.196562569874896 21.252847099065264 z"/>
<path fill="#c0c0c0" stroke="#c0c0c0" d="M-2.8383642916418848 17.58341895263631 L-3.9676852653598536 18.561981146787264 L-3.9676852653598536 18.561981146787264 L-2.8383642916418848 17.58341895263631 z"/>
<path fill="#c0c0c0" stroke="#c0c0c0" d="M-5.111759450873555 20.96403419886439 L-5.196562569874896 21.252847099065264 L-5.196562569874896 21.252847099065264 L-4.77556797561122 19.819071181740107 L-4.77556797561122 19.819071181740107 z"/>
<path fill="#c0c0c0" stroke="#c0c0c0" d="M-3.967685265359853 18.561981146787264 L-4.77556797561122 19.819071181740107 L-4.77556797561122 19.819071181740107 L-3.967685265359853 18.561981146787264 z"/>
<path fill="#c0c0c0" stroke="#c0c0c0" d="M-1.4790959234175023 16.9626618885239 L-2.8383642916418848 17.58341895263631 L-2.8383642916418848 17.58341895263631 L-1.4790959234175023 16.9626618885239 z"/>
<path fill="#c0c0c0" stroke="#c0c0c0" d="M-1.0192780542189084 16.896550059742122 L-1.4790959234175023 16.9626618885239 L-1.4790959234175023 16.9626618885239 L3.818672312345423e-15 16.750000000000014 L3.818672312345423e-15 16.750000000000014 L-0.2985981124961418 16.792931927204826 L-0.2985981124961418 16.792931927204826 L-0.2985981124961418 16.792931927204826 L3.818672312345423e-15 16.750000000000014 L3.818672312345423e-15 16.750000000000014 L-0.30285676103167586 16.79354422842599 L-0.9703701146999029 16.889518159635273 z"/>
<path fill="#c0c0c0" stroke="#c0c0c0" d="M0.3398521050618068 16.7988633558764 L3.818672312345423e-15 16.75000000000001 L3.818672312345423e-15 16.75000000000001 L0.2985981124961461 16.792931927204826 L0.2985981124961461 16.792931927204826 L0.2985981124961461 16.792931927204826 L3.818672312345423e-15 16.75000000000001 L3.818672312345423e-15 16.75000000000001 L1.4790959234175085 16.9626618885239 L1.4790959234175085 16.9626618885239 L0.9763163312431618 16.890373096505584 L0.5243204297003002 16.82538589688903 z"/>
<path fill="#c0c0c0" stroke="#c0c0c0" d="M4.77556797561122 19.819071181740107 L3.9676852653598553 18.561981146787264 L3.9676852653598553 18.561981146787264 L4.77556797561122 19.819071181740107 z"/>
<path fill="#c0c0c0" stroke="#c0c0c0" d="M2.8383642916418883 17.58341895263631 L1.4790959234175085 16.9626618885239 L1.4790959234175085 16.9626618885239 L2.8383642916418883 17.58341895263631 z"/>
<path fill="#c0c0c0" stroke="#c0c0c0" d="M3.967685265359856 18.561981146787268 L2.8383642916418883 17.58341895263631 L2.8383642916418883 17.58341895263631 L3.967685265359856 18.561981146787268 z"/>
<path fill="#c0c0c0" stroke="#c0c0c0" d="M5.1117594508735555 20.964034198864393 L4.775567975611221 19.819071181740107 L4.775567975611221 19.819071181740107 L5.196562569874897 21.252847099065264 L5.196562569874897 21.252847099065264 L5.125270062060887 21.01004711497468 z"/>
<path fill="#c0c0c0" stroke="#c0c0c0" d="M5.196562569874897 21.71701146632696 L5.196562569874898 21.252847099065267 L5.196562569874898 21.252847099065267 L5.196562569874897 22.74715290093476 L5.196562569874897 22.74715290093476 L5.196562569874897 22.544329100907124 L5.196562569874897 22.338997062397954 z"/>
<path fill="#c0c0c0" stroke="#c0c0c0" d="M5.119295854265234 23.010299168277474 L5.196562569874897 22.74715290093476 L5.196562569874897 22.74715290093476 L4.775567975611221 24.18092881825992 L4.775567975611221 24.18092881825992 z"/>
<path fill="#c0c0c0" stroke="#c0c0c0" d="M3.967685265359856 25.438018853212757 L4.775567975611222 24.180928818259915 L4.775567975611222 24.180928818259915 L3.967685265359856 25.438018853212757 z"/>
<path fill="#c0c0c0" stroke="#c0c0c0" d="M1.479095923417506 27.037338111476124 L2.8383642916418865 26.416581047363714 L2.8383642916418865 26.416581047363714 L1.479095923417506 27.037338111476124 z"/>
<path fill="#c0c0c0" stroke="#c0c0c0" d="M2.8383642916418865 26.416581047363714 L3.967685265359855 25.43801885321276 L3.967685265359855 25.43801885321276 L2.8383642916418865 26.416581047363714 z"/>
<path fill="#c0c0c0" stroke="#c0c0c0" d="M1.0192780542189082 27.103449940257903 L1.4790959234175058 27.037338111476124 L1.4790959234175058 27.037338111476124 L3.2146978477618016e-16 27.250000000000014 L3.2146978477618016e-16 27.250000000000014 L0.2985981124961446 27.2070680727952 L0.2985981124961446 27.2070680727952 L0.2985981124961446 27.2070680727952 L3.2146978477618016e-16 27.250000000000014 L3.2146978477618016e-16 27.250000000000014 L0.30285676103167647 27.206455771574035 L0.9703701146999028 27.110481840364752 z"/>
<path fill="#c0c0c0" stroke="#c0c0c0" d="M-0.3398521050618067 27.201136644123626 L3.2146978477618016e-16 27.25000000000001 L3.2146978477618016e-16 27.25000000000001 L-0.2985981124961438 27.2070680727952 L-0.2985981124961438 27.2070680727952 L-0.2985981124961438 27.2070680727952 L3.2146978477618016e-16 27.25000000000001 L3.2146978477618016e-16 27.25000000000001 L-1.4790959234175012 27.037338111476124 L-1.4790959234175012 27.037338111476124 L-0.9763163312431625 27.10962690349444 L-0.5243204297003001 27.174614103110994 z"/>
<path fill="#c0c0c0" stroke="#c0c0c0" d="M-3.967685265359855 25.43801885321276 L-2.8383642916418865 26.416581047363714 L-1.4790959234175014 27.037338111476124 L3.214697847761802e-16 27.250000000000014 L1.4790959234175063 27.037338111476124 L2.838364291641887 26.416581047363714 L3.9676852653598553 25.43801885321276 L4.775567975611221 24.18092881825992 L5.196562569874897 22.74715290093476 L5.196562569874898 21.252847099065267 L4.775567975611222 19.81907118174011 L3.9676852653598567 18.561981146787268 L2.8383642916418887 17.58341895263631 L1.4790959234175087 16.962661888523904 L3.818672312345424e-15 16.750000000000014 L-1.4790959234175025 16.9626618885239 L-2.838364291641885 17.58341895263631 L-3.967685265359854 18.561981146787264 L-4.775567975611221 19.819071181740107 L-5.196562569874897 21.252847099065264 L-5.196562569874898 22.747152900934758 L-4.775567975611221 24.18092881825992 M-0.8352025551534754 19.05566926304449 L-0.569623505231367 18.952783390979917 L0.2848117526156853 18.952783390979917 L0.5696235052313694 18.952783390979917 L0.8615378309690421 19.065871603248432 L1.3663606549976954 19.261441007173637 L1.6319397049198041 19.36432687923821 L2.263374979656508 19.93995619022779 L2.473853404568743 20.131832627224316 L2.85470797151899 20.896691704888497 L2.9816594938357395 21.151644730776557 L3.0434141210060695 21.818083292982845 L3.06049683334489 22.002435118446325 L3.086775946514607 22.28603191433625 L2.8529486390291714 23.107849655764525 L2.775006203200693 23.38178890290728 L2.2600939222784184 24.06364295826486 L2.088456495304327 24.290927643384055 L1.3620009977112122 24.740729844211153 L1.1198491651801739 24.890663911153517 L0.2799622912950436 25.047665977788387 L0.23820027285176715 25.055472652004056 L1.8982025386783975e-16 25.100000000000012 L-0.8398868738851286 24.94299793336514 L-0.8628801025688037 24.93869975401005 L-1.1198491651801716 24.890663911153517 L-1.4790959234175016 24.668227735736675 L-1.8463046627732882 24.44086171032642 L-2.088456495304327 24.290927643384055 L-2.6033687762266022 23.609073588026472 L-2.775006203200694 23.381788902907278 L-3.008833510686129 22.559971161479005 L-3.0867759465146074 22.28603191433625 L-3.0079386070054555 21.435241526666477 L-2.9816594938357386 21.151644730776553 L-2.6008049268854903 20.386785653112376 L-2.4738534045687413 20.131832627224316 L-1.842418129832036 19.556203316234736 L-1.631939704919801 19.364326879238206 L-1.479095923417502 19.305114882832154 z"/>
<path fill="#c0c0c0" stroke="#c0c0c0" d="M-1.0192780542189084 16.896550059742122 L-0.9703701146999029 16.889518159635273 L-0.30285676103167586 16.79354422842599 L3.818672312345424e-15 16.750000000000014 L0.3398521050618068 16.7988633558764 L0.5243204297003002 16.82538589688903 L0.9763163312431619 16.890373096505584 L1.4790959234175087 16.962661888523904 L2.8383642916418887 17.58341895263631 L3.9676852653598567 18.561981146787268 L4.775567975611222 19.81907118174011 L5.1117594508735555 20.964034198864393 L5.125270062060887 21.01004711497468 L5.196562569874898 21.252847099065267 L5.196562569874897 21.717011466326962 L5.196562569874897 22.338997062397958 L5.196562569874897 22.544329100907127 L5.196562569874897 22.74715290093476 L5.119295854265234 23.010299168277474 L4.775567975611221 24.18092881825992 L3.9676852653598553 25.43801885321276 L2.838364291641887 26.416581047363714 L1.4790959234175063 27.037338111476124 L1.0192780542189084 27.103449940257903 L0.9703701146999029 27.110481840364752 L0.3028567610316765 27.206455771574035 L3.214697847761802e-16 27.250000000000014 L-0.33985210506180674 27.201136644123626 L-0.5243204297003001 27.174614103110994 L-0.9763163312431625 27.10962690349444 L-1.4790959234175014 27.037338111476124 L-2.8383642916418865 26.416581047363714 L-3.967685265359855 25.43801885321276 L-4.775567975611221 24.18092881825992 L-5.119295854265234 23.010299168277474 L-5.1734728447292335 22.825789283212803 L-5.196562569874898 22.747152900934758 L-5.196562569874897 21.252847099065264 L-5.1117594508735555 20.964034198864393 L-4.775567975611221 19.819071181740107 L-3.967685265359854 18.561981146787264 L-2.838364291641885 17.58341895263631 L-1.4790959234175025 16.9626618885239 M3.086775946514607 22.28603191433625 L3.0434141210060695 21.818083292982845 L2.9816594938357395 21.151644730776557 L2.473853404568743 20.131832627224316 L1.6319397049198041 19.36432687923821 L0.8615378309690421 19.065871603248432 L0.5696235052313694 18.952783390979917 L-0.044978699041922234 18.952783390979917 L-0.569623505231367 18.952783390979917 L-0.9820146571992466 19.11254457438039 L-1.479095923417502 19.305114882832154 L-1.631939704919801 19.364326879238206 L-2.4738534045687413 20.131832627224316 L-2.9816594938357386 21.151644730776553 L-3.0867759465146074 22.28603191433625 L-2.775006203200694 23.381788902907278 L-2.088456495304327 24.290927643384055 L-1.4790959234175016 24.668227735736675 L-1.3360494720881555 24.756798348584436 L-1.1198491651801716 24.890663911153517 L-1.0989896023545433 24.894563239235136 L-0.8628801025688037 24.93869975401005 L1.8982025386783975e-16 25.100000000000012 L0.23820027285176715 25.055472652004056 L1.1198491651801739 24.890663911153517 L2.088456495304327 24.290927643384055 L2.775006203200693 23.38178890290728 z"/>
<path fill="#c0c0c0" stroke="#c0c0c0" d="M-2.040026128798119 24.32091445677253 L-1.1198491651801714 24.890663911153517 L-1.1198491651801714 24.890663911153517 L-2.0884564953043268 24.290927643384055 L-2.0884564953043268 24.290927643384055 z"/>
<path fill="#c0c0c0" stroke="#c0c0c0" d="M-2.088456495304328 24.290927643384055 L-2.088456495304328 24.290927643384055 L-2.775006203200695 23.381788902907278 L-2.775006203200695 23.381788902907278 L-2.740678717805876 23.427245839931118 z"/>
<path fill="#c0c0c0" stroke="#c0c0c0" d="M-1.0638567069211629 24.90113071559584 L1.8982025386783972e-16 25.100000000000012 L1.8982025386783972e-16 25.100000000000012 L-1.1198491651801714 24.890663911153517 L-1.1198491651801714 24.890663911153517 z"/>
<path fill="#c0c0c0" stroke="#c0c0c0" d="M-2.7750062032006944 23.381788902907278 L-3.086775946514608 22.286031914336245 L-3.086775946514608 22.286031914336245 L-3.071187459348912 22.3408197637648 L-2.7750062032006944 23.381788902907278 z"/>
<path fill="#c0c0c0" stroke="#c0c0c0" d="M-2.986915316469682 21.20836408995454 L-3.0403167338819705 21.784657162566944 L-3.086775946514607 22.286031914336245 L-3.086775946514607 22.286031914336245 L-3.0403167338819705 21.784657162566944 L-2.981659493835738 21.151644730776553 L-2.981659493835738 21.151644730776553 z"/>
<path fill="#c0c0c0" stroke="#c0c0c0" d="M-2.9816594938357377 21.151644730776553 L-2.9300372059004567 21.04797320110772 L-2.727052632614215 20.640325224750242 L-2.4738534045687404 20.131832627224316 L-2.4738534045687404 20.131832627224316 L-2.4992437090320907 20.182823232401926 L-2.727052632614215 20.640325224750242 L-2.9300372059004567 21.04797320110772 L-2.9816594938357377 21.151644730776553 z"/>
<path fill="#c0c0c0" stroke="#c0c0c0" d="M-1.6319397049198008 19.364326879238206 L-1.6740353899022478 19.402702166637514 L-2.473853404568741 20.131832627224316 L-2.473853404568741 20.131832627224316 L-1.6319397049198008 19.364326879238206 z"/>
<path fill="#c0c0c0" stroke="#c0c0c0" d="M-1.6319397049198008 19.364326879238206 L-1.6319397049198008 19.364326879238206 L-0.5696235052313668 18.952783390979917 L-0.5696235052313668 18.952783390979917 L-0.6227393152157885 18.97336056539283 z"/>
<path fill="#c0c0c0" stroke="#c0c0c0" d="M0.5126611547082325 18.952783390979917 L-0.5696235052313668 18.952783390979917 L-0.5696235052313668 18.952783390979917 L0.5696235052313693 18.952783390979917 L0.5696235052313693 18.952783390979917 z"/>
<path fill="#c0c0c0" stroke="#c0c0c0" d="M1.578823894935382 19.343749704825296 L0.5696235052313693 18.952783390979917 L0.5696235052313693 18.952783390979917 L1.631939704919804 19.36432687923821 L1.631939704919804 19.36432687923821 z"/>
<path fill="#c0c0c0" stroke="#c0c0c0" d="M3.0815201238806633 22.229312555158263 L2.981659493835739 21.151644730776557 L2.981659493835739 21.151644730776557 L3.0867759465146065 22.28603191433625 L3.0867759465146065 22.28603191433625 z"/>
<path fill="#c0c0c0" stroke="#c0c0c0" d="M2.4317577195862956 20.09345733982501 L1.631939704919804 19.36432687923821 L1.631939704919804 19.36432687923821 L2.4738534045687426 20.131832627224316 L2.4738534045687426 20.131832627224316 z"/>
<path fill="#c0c0c0" stroke="#c0c0c0" d="M2.9562691893723887 21.100654125598943 L2.727052632614215 20.640325224750242 L2.4738534045687413 20.131832627224316 L2.4738534045687413 20.131832627224316 L2.727052632614215 20.640325224750242 L2.9816594938357377 21.151644730776553 L2.9816594938357377 21.151644730776553 z"/>
<path fill="#c0c0c0" stroke="#c0c0c0" d="M0.05599245825900887 25.08953319555769 L0.23171168317690968 25.056685579625828 L1.1198491651801736 24.890663911153517 L1.1198491651801736 24.890663911153517 L0.23171168317690968 25.056685579625828 L1.8982025386783972e-16 25.100000000000012 L1.8982025386783972e-16 25.100000000000012 z"/>
<path fill="#c0c0c0" stroke="#c0c0c0" d="M2.790594690366389 23.327001053478728 L2.9000557762484402 22.942285241877137 L3.086775946514607 22.28603191433625 L3.086775946514607 22.28603191433625 L2.9000557762484402 22.942285241877137 L2.775006203200693 23.38178890290728 L2.775006203200693 23.38178890290728 z"/>
<path fill="#c0c0c0" stroke="#c0c0c0" d="M2.775006203200695 23.381788902907278 L2.088456495304329 24.29092764338405 L2.088456495304329 24.29092764338405 L2.1227839806991455 24.245470706360216 L2.775006203200695 23.381788902907278 z"/>
<path fill="#c0c0c0" stroke="#c0c0c0" d="M2.0884564953043268 24.290927643384055 L1.1198491651801736 24.890663911153517 L1.1198491651801736 24.890663911153517 L1.1682795316863812 24.86067709776504 L2.0884564953043268 24.290927643384055 z"/>
<path fill="#c0c0c0" stroke="#c0c0c0" d="M-2.5862551100868822 25.559674775249782 L-1.3596747752497689 26.18464867169869 L-1.3596747752497689 26.18464867169869 L-2.5862551100868822 25.559674775249782 z"/>
<path fill="#c0c0c0" stroke="#c0c0c0" d="M-3.559674775249769 24.586255110086892 L-2.5862551100868827 25.559674775249782 L-2.5862551100868827 25.559674775249782 L-3.559674775249769 24.586255110086892 z"/>
<path fill="#c0c0c0" stroke="#c0c0c0" d="M-4.1846486716986755 23.359674775249783 L-3.5596747752497695 24.586255110086892 L-3.5596747752497695 24.586255110086892 L-4.1846486716986755 23.359674775249783 z"/>
<path fill="#c0c0c0" stroke="#c0c0c0" d="M-4.4 22.000000000000007 L-4.1846486716986755 23.35967477524978 L-4.1846486716986755 23.35967477524978 L-4.4 22.000000000000007 z"/>
<path fill="#c0c0c0" stroke="#c0c0c0" d="M-4.184648671698675 20.640325224750242 L-4.3999999999999995 22.00000000000001 L-4.3999999999999995 22.00000000000001 L-4.184648671698675 20.640325224750242 z"/>
<path fill="#c0c0c0" stroke="#c0c0c0" d="M-3.5596747752497677 19.41374488991313 L-4.184648671698675 20.640325224750242 L-4.184648671698675 20.640325224750242 L-3.5596747752497677 19.41374488991313 z"/>
<path fill="#c0c0c0" stroke="#c0c0c0" d="M-2.586255110086881 18.440325224750243 L-3.559674775249768 19.41374488991313 L-3.559674775249768 19.41374488991313 L-2.586255110086881 18.440325224750243 z"/>
<path fill="#c0c0c0" stroke="#c0c0c0" d="M1.3596747752497684 17.815351328301336 L2.694222958124177e-16 17.600000000000012 L2.694222958124177e-16 17.600000000000012 L1.3596747752497684 17.815351328301336 z"/>
<path fill="#c0c0c0" stroke="#c0c0c0" d="M-1.3596747752497682 17.815351328301336 L-2.586255110086881 18.440325224750243 L-2.586255110086881 18.440325224750243 L-1.3596747752497682 17.815351328301336 z"/>
<path fill="#c0c0c0" stroke="#c0c0c0" d="M2.694222958124177e-16 17.600000000000012 L-1.3596747752497682 17.815351328301336 L-1.3596747752497682 17.815351328301336 L2.694222958124177e-16 17.600000000000012 z"/>
<path fill="#c0c0c0" stroke="#c0c0c0" d="M2.5862551100868814 18.440325224750243 L1.3596747752497687 17.815351328301336 L1.3596747752497687 17.815351328301336 L2.5862551100868814 18.440325224750243 z"/>
<path fill="#c0c0c0" stroke="#c0c0c0" d="M3.559674775249766 19.41374488991313 L2.5862551100868796 18.440325224750243 L2.5862551100868796 18.440325224750243 L3.559674775249766 19.41374488991313 z"/>
<path fill="#c0c0c0" stroke="#c0c0c0" d="M4.184648671698675 20.640325224750242 L3.5596747752497686 19.41374488991313 L3.5596747752497686 19.41374488991313 L4.184648671698675 20.640325224750242 z"/>
<path fill="#c0c0c0" stroke="#c0c0c0" d="M4.3999999999999995 22.000000000000007 L4.184648671698675 20.640325224750242 L4.184648671698675 20.640325224750242 L4.3999999999999995 22.000000000000007 z"/>
<path fill="#c0c0c0" stroke="#c0c0c0" d="M4.1846486716986755 23.359674775249776 L4.4 22.000000000000007 L4.4 22.000000000000007 L4.1846486716986755 23.359674775249776 z"/>
<path fill="#c0c0c0" stroke="#c0c0c0" d="M3.5596747752497695 24.586255110086892 L4.1846486716986755 23.35967477524978 L4.1846486716986755 23.35967477524978 L3.5596747752497695 24.586255110086892 z"/>
<path fill="#c0c0c0" stroke="#c0c0c0" d="M2.586255110086883 25.559674775249782 L3.5596747752497695 24.586255110086896 L3.5596747752497695 24.586255110086896 L2.586255110086883 25.559674775249782 z"/>
<path fill="#c0c0c0" stroke="#c0c0c0" d="M1.3596747752497687 26.18464867169869 L2.5862551100868814 25.559674775249782 L2.5862551100868814 25.559674775249782 L1.3596747752497687 26.18464867169869 z"/>
<path fill="#c0c0c0" stroke="#c0c0c0" d="M2.694222958124177e-16 26.400000000000013 L1.3596747752497684 26.18464867169869 L1.3596747752497684 26.18464867169869 L2.694222958124177e-16 26.400000000000013 z"/>
<path fill="#c0c0c0" stroke="#c0c0c0" d="M-1.359674775249769 26.18464867169869 L2.694222958124177e-16 26.400000000000013 L2.694222958124177e-16 26.400000000000013 L-1.359674775249769 26.18464867169869 z"/>
<path fill="#c0c0c0" stroke="#c0c0c0" d="M-3.559674775249769 24.586255110086896 L-2.5862551100868827 25.559674775249782 L-1.3596747752497693 26.18464867169869 L2.6942229581241775e-16 26.400000000000013 L1.3596747752497689 26.18464867169869 L2.586255110086882 25.559674775249782 L3.559674775249769 24.586255110086896 L4.1846486716986755 23.359674775249783 L4.4 22.000000000000014 L4.1846486716986755 20.640325224750242 L3.559674775249769 19.41374488991313 L2.586255110086882 18.440325224750243 L1.3596747752497689 17.815351328301336 L2.6942229581241775e-16 17.600000000000012 L-1.3596747752497684 17.815351328301336 L-2.5862551100868814 18.440325224750243 L-3.5596747752497686 19.41374488991313 L-4.1846486716986755 20.640325224750242 L-4.4 22.00000000000001 L-4.1846486716986755 23.359674775249783 M-2.986915316469682 21.20836408995454 L-2.9816594938357386 21.151644730776553 L-2.9300372059004585 21.04797320110772 L-2.7270526326142157 20.640325224750242 L-2.4992437090320907 20.18282323240193 L-2.4738534045687413 20.131832627224316 L-1.674035389902248 19.402702166637514 L-1.631939704919801 19.364326879238206 L-0.6227393152157886 18.97336056539283 L-0.569623505231367 18.952783390979917 L0.5126611547082325 18.952783390979917 L0.5696235052313694 18.952783390979917 L1.5788238949353823 19.343749704825296 L1.6319397049198041 19.36432687923821 L2.431757719586296 20.09345733982501 L2.473853404568743 20.131832627224316 L2.727052632614216 20.640325224750242 L2.9562691893723896 21.100654125598943 L2.9816594938357395 21.151644730776557 L3.0815201238806633 22.229312555158266 L3.086775946514607 22.28603191433625 L2.90005577624844 22.94228524187714 L2.7905946903663885 23.32700105347873 L2.775006203200693 23.38178890290728 L2.122783980699145 24.245470706360216 L2.088456495304327 24.290927643384055 L1.1682795316863814 24.86067709776504 L1.1198491651801739 24.890663911153517 L0.23171168317690968 25.056685579625828 L0.05599245825900887 25.08953319555769 L1.8982025386783975e-16 25.100000000000012 L-1.0638567069211629 24.90113071559584 L-1.1198491651801716 24.890663911153517 L-2.0400261287981194 24.320914456772528 L-2.088456495304327 24.290927643384055 L-2.7406787178058756 23.427245839931118 L-2.775006203200694 23.381788902907278 L-3.0711874593489115 22.3408197637648 L-3.0867759465146074 22.28603191433625 L-3.040316733881971 21.784657162566948 z"/>
<path fill="#c0c0c0" stroke="#c0c0c0" d="M-2.5862551100868827 25.559674775249782 L-3.559674775249769 24.586255110086896 L-4.1846486716986755 23.359674775249783 L-4.4 22.00000000000001 L-4.1846486716986755 20.640325224750242 L-3.5596747752497686 19.41374488991313 L-2.5862551100868814 18.440325224750243 L-1.3596747752497684 17.815351328301336 L2.6942229581241775e-16 17.600000000000012 L1.3596747752497689 17.815351328301336 L2.586255110086882 18.440325224750243 L3.559674775249769 19.41374488991313 L4.1846486716986755 20.640325224750242 L4.4 22.000000000000014 L4.1846486716986755 23.359674775249783 L3.559674775249769 24.586255110086896 L2.586255110086882 25.559674775249782 L1.3596747752497689 26.18464867169869 L2.6942229581241775e-16 26.400000000000013 L-1.3596747752497693 26.18464867169869 M-2.775006203200694 23.381788902907278 L-2.088456495304327 24.290927643384055 L-1.1198491651801716 24.890663911153517 L1.8982025386783975e-16 25.100000000000012 L0.23171168317690968 25.056685579625828 L1.1198491651801739 24.890663911153517 L2.088456495304327 24.290927643384055 L2.775006203200693 23.38178890290728 L2.90005577624844 22.94228524187714 L3.086775946514607 22.28603191433625 L2.9816594938357395 21.151644730776557 L2.727052632614216 20.640325224750242 L2.473853404568743 20.131832627224316 L1.6319397049198041 19.36432687923821 L0.5696235052313694 18.952783390979917 L-0.569623505231367 18.952783390979917 L-1.631939704919801 19.364326879238206 L-2.4738534045687413 20.131832627224316 L-2.7270526326142157 20.640325224750242 L-2.9300372059004585 21.04797320110772 L-2.9816594938357386 21.151644730776553 L-3.040316733881971 21.784657162566948 L-3.0867759465146074 22.28603191433625 z"/>
</svg>